<?xml version="1.0" encoding="UTF-8"?>
<svg width="1202px" height="681px" viewBox="0 0 1202 681" version="1.1" xmlns="http://www.w3.org/2000/svg" xmlns:xlink="http://www.w3.org/1999/xlink">
    <title>智慧金融解决方案</title>
    <defs>
        <path d="M677.857343,8 L677.857343,86.0985894" id="path-1"></path>
        <filter x="-372.8%" y="-6.7%" width="845.6%" height="118.6%" filterUnits="objectBoundingBox" id="filter-2">
            <feMorphology radius="0.25" operator="dilate" in="SourceAlpha" result="shadowSpreadOuter1"></feMorphology>
            <feOffset dx="0" dy="2" in="shadowSpreadOuter1" result="shadowOffsetOuter1"></feOffset>
            <feMorphology radius="1" operator="erode" in="SourceAlpha" result="shadowInner"></feMorphology>
            <feOffset dx="0" dy="2" in="shadowInner" result="shadowInner"></feOffset>
            <feComposite in="shadowOffsetOuter1" in2="shadowInner" operator="out" result="shadowOffsetOuter1"></feComposite>
            <feGaussianBlur stdDeviation="2" in="shadowOffsetOuter1" result="shadowBlurOuter1"></feGaussianBlur>
            <feColorMatrix values="0 0 0 0 0   0 0 0 0 0   0 0 0 0 0  0 0 0 0.5 0" type="matrix" in="shadowBlurOuter1"></feColorMatrix>
        </filter>
    </defs>
    <g id="页面-1" stroke="none" stroke-width="1" fill="none" fill-rule="evenodd">
        <g id="Smart-Finance-/-智慧金融" transform="translate(-359.000000, -543.000000)">
            <g id="智慧金融解决方案" transform="translate(360.000000, 544.000000)">
                <g id="编组-26" transform="translate(0.000000, 165.000000)">
                    <polygon id="Fill-1" fill-opacity="0.104594624" fill="#80B3DA" points="121 94.2702012 1199 94.2702012 1199 0 121 0"></polygon>
                    <g id="编组-36">
                        <polygon id="Fill-22" fill-opacity="0.2" fill="#2E84E0" points="-4.19220214e-13 94.6047739 110.28643 94.6047739 110.28643 0.333130635 -4.19220214e-13 0.333130635"></polygon>
                        <text id="应用层" font-family="PingFangSC-Regular, PingFang SC" font-size="16" font-weight="normal" fill="#0272DF">
                            <tspan x="31.3054539" y="55.6984351">应用层</tspan>
                        </text>
                        <polygon id="Fill-23" fill-opacity="0.2" fill="#2E84E0" points="-4.19220214e-13 199.671067 110.28643 199.671067 110.28643 105.399424 -4.19220214e-13 105.399424"></polygon>
                        <text id="运营层" font-family="PingFangSC-Regular, PingFang SC" font-size="16" font-weight="normal" fill="#0272DF">
                            <tspan x="31.3054539" y="160.764728">运营层</tspan>
                        </text>
                        <polygon id="Fill-24" fill-opacity="0.2" fill="#2E84E0" points="-4.19220214e-13 304.671067 110.28643 304.671067 110.28643 210.399424 -4.19220214e-13 210.399424"></polygon>
                        <text id="平台层" font-family="PingFangSC-Regular, PingFang SC" font-size="16" font-weight="normal" fill="#0272DF">
                            <tspan x="31.3054539" y="265.764728">平台层</tspan>
                        </text>
                        <polygon id="Fill-25" fill-opacity="0.2" fill="#2E84E0" points="-4.19220214e-13 409.671067 110.28643 409.671067 110.28643 315.399424 -4.19220214e-13 315.399424"></polygon>
                        <text id="网络层" font-family="PingFangSC-Regular, PingFang SC" font-size="16" font-weight="normal" fill="#0272DF">
                            <tspan x="31.3054539" y="370.764728">网络层</tspan>
                        </text>
                        <polygon id="Fill-26" fill-opacity="0.2" fill="#2E84E0" points="-4.19220214e-13 514.669625 110.28643 514.669625 110.28643 420.399424 -4.19220214e-13 420.399424"></polygon>
                        <text id="感知层" font-family="PingFangSC-Regular, PingFang SC" font-size="16" font-weight="normal" fill="#0272DF">
                            <tspan x="31.3054539" y="475.764728">感知层</tspan>
                        </text>
                    </g>
                    <text id="客户识别" font-family="PingFangSC-Regular, PingFang SC" font-size="14" font-weight="normal" letter-spacing="0.0310619642" fill="#3E3A39" fill-opacity="0.85">
                        <tspan x="182" y="34">客户识别</tspan>
                    </text>
                    <text id="环境感知" font-family="PingFangSC-Regular, PingFang SC" font-size="14" font-weight="normal" letter-spacing="0.0310619642" fill="#3E3A39" fill-opacity="0.85">
                        <tspan x="182" y="69">环境感知</tspan>
                    </text>
                    <text id="精准营销" font-family="PingFangSC-Regular, PingFang SC" font-size="14" font-weight="normal" letter-spacing="0.0310619642" fill="#3E3A39" fill-opacity="0.85">
                        <tspan x="332" y="34">精准营销</tspan>
                    </text>
                    <text id="智能中控" font-family="PingFangSC-Regular, PingFang SC" font-size="14" font-weight="normal" letter-spacing="0.0310619642" fill="#3E3A39" fill-opacity="0.85">
                        <tspan x="332" y="69">智能中控</tspan>
                    </text>
                    <text id="运营统计" font-family="PingFangSC-Regular, PingFang SC" font-size="14" font-weight="normal" letter-spacing="0.0310619642" fill="#3E3A39" fill-opacity="0.85">
                        <tspan x="481" y="34">运营统计</tspan>
                    </text>
                    <text id="互动营销" font-family="PingFangSC-Regular, PingFang SC" font-size="14" font-weight="normal" letter-spacing="0.0310619642" fill="#3E3A39" fill-opacity="0.85">
                        <tspan x="481" y="69">互动营销</tspan>
                    </text>
                    <text id="可视化调度" font-family="PingFangSC-Regular, PingFang SC" font-size="14" font-weight="normal" letter-spacing="0.0310619642" fill="#3E3A39" fill-opacity="0.85">
                        <tspan x="631" y="34">可视化调度</tspan>
                    </text>
                    <text id="动线分析" font-family="PingFangSC-Regular, PingFang SC" font-size="14" font-weight="normal" letter-spacing="0.0310619642" fill="#3E3A39" fill-opacity="0.85">
                        <tspan x="631" y="69">动线分析</tspan>
                    </text>
                    <text id="智能风控" font-family="PingFangSC-Regular, PingFang SC" font-size="14" font-weight="normal" letter-spacing="0.0310619642" fill="#3E3A39" fill-opacity="0.85">
                        <tspan x="795" y="34">智能风控</tspan>
                    </text>
                    <text id="远程咨询" font-family="PingFangSC-Regular, PingFang SC" font-size="14" font-weight="normal" letter-spacing="0.0310619642" fill="#3E3A39" fill-opacity="0.85">
                        <tspan x="795" y="69">远程咨询</tspan>
                    </text>
                    <text id="金融知识图谱" font-family="PingFangSC-Regular, PingFang SC" font-size="14" font-weight="normal" letter-spacing="0.0310619642" fill="#3E3A39" fill-opacity="0.85">
                        <tspan x="944" y="34">金融知识图谱</tspan>
                    </text>
                    <text id="智能投顾" font-family="PingFangSC-Regular, PingFang SC" font-size="14" font-weight="normal" letter-spacing="0.0310619642" fill="#3E3A39" fill-opacity="0.85">
                        <tspan x="944" y="68">智能投顾</tspan>
                    </text>
                    <text id="......" font-family="LucidaGrande, Lucida Grande" font-size="11.2678" font-weight="normal" letter-spacing="0.025" fill="#040000">
                        <tspan x="1128" y="52">......</tspan>
                    </text>
                </g>
                <g id="编组-30" transform="translate(121.000000, 270.000000)">
                    <polygon id="Fill-3" fill-opacity="0.104594624" fill="#80B3DA" points="3.40005801e-14 94.4471017 1079 94.4471017 1079 0.175458415 3.40005801e-14 0.175458415"></polygon>
                    <g id="编组-41" transform="translate(40.000000, 14.000000)">
                        <text id="智慧引流系统" font-family="PingFangSC-Regular, PingFang SC" font-size="14" font-weight="normal" letter-spacing="0.0310619642" fill="#3E3A39" fill-opacity="0.85">
                            <tspan x="6.93902875" y="61">智慧引流系统</tspan>
                        </text>
                        <g id="编组" transform="translate(29.000000, -0.000000)">
                            <path d="M39.7403215,12.7287149 C38.7120872,10.2958517 37.2396786,8.11103393 35.3605911,6.23194641 C33.4858299,4.35718526 31.29957,2.88045033 28.8638226,1.85221594 C26.3444321,0.786486337 23.6664079,0.247131976 20.9090669,0.247131976 C18.1517259,0.247131976 15.4722595,0.786486337 12.952869,1.85221594 C10.521448,2.88045033 8.33663019,4.35718526 6.45610054,6.23194641 C4.58278152,8.10670756 3.10604659,10.2929675 2.07637008,12.7287149 C1.0120826,15.2481054 0.472728234,17.9261296 0.472728234,20.6834706 C0.472728234,23.4408116 1.0120826,26.1202779 2.07637008,28.6382264 C3.10604659,31.0710895 4.57845515,33.2559073 6.45610054,35.1349948 C8.33086169,37.009756 10.5171216,38.4864909 12.952869,39.5147253 C15.4722595,40.5804549 18.1517259,41.1198093 20.9090669,41.1198093 C23.6664079,41.1198093 26.3444321,40.5804549 28.8638226,39.5147253 C31.2966858,38.4864909 33.4815036,37.0140823 35.3605911,35.1349948 C37.2353522,33.2602337 38.7120872,31.0754159 39.7403215,28.6382264 C40.8060512,26.1202779 41.3439634,23.4408116 41.3439634,20.6834706 C41.3439634,17.9261296 40.8060512,15.2481054 39.7403215,12.7287149" id="Fill-98" fill="#47BBD1"></path>
                            <path d="M9.47013962,20.848738 L11.7991698,21.861109 C12.5649376,22.1927976 13.3321476,22.5244861 14.1022418,22.8475218 C14.8665675,23.1705576 15.6323353,23.4921512 16.4038716,23.7993236 L16.6721067,23.9060408 C16.977837,24.0300635 17.2850094,24.1555283 17.5993924,24.2463821 L17.8286901,24.3127198 L18.1012515,24.5939339 C18.4718774,25.1116564 18.7083857,25.6322632 18.8987461,26.049037 L19.0891064,26.4773478 C19.5664495,27.6238364 19.9688021,28.7746513 20.2658796,29.6500206 C20.5528623,30.5109686 20.8326343,31.3748008 21.096543,32.2371909 L21.1917232,32.5486897 L28.7095154,13.4333366 C28.7369157,13.3641147 28.7643161,13.2948927 28.7917164,13.2256708 L10.1753382,20.5718502 C9.93594566,20.6655883 9.70087946,20.755 9.47013962,20.848738 L9.47013962,20.848738 Z M21.1239433,34.5431471 C20.3971129,34.5431471 19.7020091,34.0138877 19.4770378,33.2596568 L19.3357096,32.7895244 C19.0718009,31.9300185 18.7963553,31.0820496 18.5165832,30.2398492 C18.2296006,29.3947646 17.8402271,28.282887 17.3888423,27.1969677 L17.2201138,26.816247 C17.0874384,26.5249379 16.9403417,26.2019022 16.768729,25.9192459 C16.5033782,25.8283921 16.2423537,25.7245591 15.9813293,25.617842 L15.7246312,25.5154512 C14.9386737,25.2039524 14.162811,24.8751481 13.3855062,24.5492281 C12.6110856,24.2233081 11.8381072,23.8901775 11.068013,23.5570468 L8.61640224,22.4898751 C8.58755976,22.4855487 8.48372683,22.4394007 8.3856624,22.3860422 C8.04964752,22.2418298 7.73382237,21.8668775 7.56509387,21.3693448 C7.46991369,21.0765936 7.4583767,20.7708633 7.52904077,20.4723437 C7.56220962,20.2949624 7.63720007,20.1002757 7.74391724,19.9315472 C7.91552999,19.5955323 8.32653532,19.2681702 8.78224649,19.1398211 C8.97693323,19.0561779 9.24084191,18.9552293 9.5047506,18.8528385 L28.3706162,11.4071525 C29.0585094,11.1360331 29.7954347,11.4359949 30.1876924,11.8296948 C30.5712974,12.1974364 30.8727013,12.9098456 30.6232139,13.5977387 L30.6203296,13.6078336 C30.5467813,13.809731 30.48477,13.9640382 30.4227586,14.1197876 L22.8573763,33.3389736 C22.7362379,33.6389354 22.5228036,34.064362 22.0411342,34.3196179 C21.771457,34.4609461 21.4902428,34.5344944 21.2003759,34.5402629 C21.1744177,34.541705 21.1499016,34.5431471 21.1239433,34.5431471 L21.1239433,34.5431471 Z" id="Fill-100" fill="#FFFFFF"></path>
                        </g>
                    </g>
                    <g id="编组-38" transform="translate(394.000000, 13.827085)">
                        <text id="金融大数据管理系统" font-family="PingFangSC-Regular, PingFang SC" font-size="14" font-weight="normal" letter-spacing="0.0310619642" fill="#3E3A39" fill-opacity="0.85">
                            <tspan x="10.4085431" y="61.3408142">金融大数据管理系统</tspan>
                        </text>
                        <g id="编组" transform="translate(52.710063, 0.000000)">
                            <path d="M39.4565116,12.7287149 C38.4282772,10.2958517 36.9558686,8.11103393 35.0767811,6.23194641 C33.2020199,4.35718526 31.0172021,2.88045033 28.5800126,1.85221594 C26.0606221,0.786486337 23.3825979,0.247131976 20.6252569,0.247131976 C17.8679159,0.247131976 15.1898917,0.786486337 12.6705011,1.85221594 C10.237638,2.88045033 8.05282019,4.35718526 6.17373267,6.23194641 C4.29897153,8.10670756 2.82223659,10.2929675 1.79400221,12.7287149 C0.729714724,15.2481054 0.188918239,17.9261296 0.188918239,20.6834706 C0.188918239,23.4408116 0.729714724,26.1202779 1.79400221,28.6382264 C2.82223659,31.0710895 4.29464515,33.2559073 6.17373267,35.1349948 C8.04849382,37.009756 10.2333116,38.4864909 12.6705011,39.5147253 C15.1898917,40.5804549 17.8679159,41.1198093 20.6252569,41.1198093 C23.3825979,41.1198093 26.0606221,40.5804549 28.5800126,39.5147253 C31.0128758,38.4864909 33.1976936,37.0140823 35.0767811,35.1349948 C36.9515422,33.2602337 38.4282772,31.0754159 39.4565116,28.6382264 C40.5222412,26.1202779 41.0615955,23.4408116 41.0615955,20.6834706 C41.0615955,17.9261296 40.5222412,15.2481054 39.4565116,12.7287149" id="Fill-102" fill="#47BBD1"></path>
                            <path d="M11.2090527,22.5665961 C10.9711022,23.9106556 10.839869,25.0960815 10.8268898,26.1747902 C9.97026821,24.6086436 9.48427244,22.9357798 9.40495562,21.2109996 C9.97026821,21.6840162 10.5774024,22.1714541 11.2090527,22.5665961 L11.2090527,22.5665961 Z M18.8739415,25.8993446 C16.9501482,27.1237078 14.7783095,27.93995 12.4204368,28.3350919 C12.3944786,28.3221128 12.3800573,28.3091337 12.3685204,28.2831755 C12.3540991,28.2701963 12.3540991,28.2557751 12.34112,28.2442381 L12.3151618,27.9933085 C12.2762244,27.4654912 12.2228658,26.9391159 12.2228658,26.3738033 C12.2228658,25.3599902 12.3281409,24.3447349 12.5257119,23.3972595 C14.5807385,24.5682641 16.7136398,25.4119067 18.8739415,25.8993446 L18.8739415,25.8993446 Z M22.0220981,9.54133247 C21.4279431,9.79226204 20.8236931,10.0561707 20.2180011,10.3445955 C20.1906007,10.0561707 20.1906007,9.75188257 20.1906007,9.46345778 C20.321834,9.43749955 20.4934467,9.43749955 20.62468,9.43749955 C21.1121179,9.43749955 21.5865767,9.4764369 22.0220981,9.54133247 L22.0220981,9.54133247 Z M26.7883178,18.5373017 L26.8676347,18.5373017 C27.9088482,18.5373017 28.69769,17.7470178 28.69769,16.7072464 C28.69769,16.0352167 28.3299483,15.4295246 27.7502145,15.0992782 C27.9477855,14.1907401 28.0530605,13.282202 28.0790188,12.3332845 C30.4498706,14.4676279 31.7939301,17.4960882 31.7939301,20.6976034 C31.7939301,21.7503539 31.6482756,22.7252297 31.3584087,23.7924014 C30.7671378,24.054868 30.1210663,24.2654181 29.4620157,24.4110726 C27.9737437,23.659726 26.5388304,22.6199547 25.2870668,21.4085705 C25.813442,20.5779071 26.3008799,19.6434108 26.7883178,18.5373017 L26.7883178,18.5373017 Z M16.3458982,13.3615188 C16.0819896,13.2288434 15.8180809,13.1639479 15.5022557,13.1639479 C14.4610422,13.1639479 13.6722004,13.9542318 13.6722004,14.9940032 C13.6722004,15.3502078 13.7904546,15.679012 14.039942,16.0611749 C12.9338329,17.6417428 12.1175908,19.3535439 11.6171738,21.1446619 C10.9581231,20.6976034 10.3134937,20.1697861 9.51023067,19.4328607 C10.0899645,14.480607 13.9087087,10.4772709 18.8465412,9.63362841 C18.8609624,10.187404 18.8998998,10.687821 18.9532584,11.2271754 C18.0447203,11.886226 17.1751195,12.5971931 16.3458982,13.3615188 L16.3458982,13.3615188 Z M26.7493805,11.58338 C26.7493805,12.7284264 26.6441054,13.8345355 26.4205762,14.9406446 C25.6173132,15.1526368 25.0375793,15.876583 25.0375793,16.7072464 C25.0375793,17.1932422 25.2091921,17.6417428 25.5250172,17.9316097 C25.1688126,18.7478518 24.7996289,19.5770731 24.300654,20.3543779 C22.2052479,17.9316097 20.8496514,15.0069823 20.3622135,11.886226 C21.6658935,11.1089212 23.0359113,10.5162083 24.4189082,10.1340454 C25.2740877,10.4239123 26.0773507,10.8060752 26.7493805,11.2545757 L26.7493805,11.58338 Z M22.4431983,24.8725523 C23.102249,24.2394599 23.7728366,23.4895554 24.5112041,22.5665961 C25.4846378,23.4751342 26.4335553,24.2135016 27.4214103,24.8191937 C26.3412594,25.0037856 25.2091921,25.0960815 24.0497244,25.0960815 C23.7728366,25.0960815 23.4829697,25.0831024 23.2060819,25.0686812 C22.9695736,25.055702 22.718644,25.0427229 22.4821357,25.0427229 C22.4691566,25.0037856 22.4561775,24.9374479 22.4431983,24.8725523 L22.4431983,24.8725523 Z M15.2513262,16.8514588 C15.330643,16.8644379 15.4099598,16.8774171 15.5152348,16.8774171 C16.5564483,16.8774171 17.3452901,16.0871331 17.3452901,15.0473618 C17.3452901,14.8108534 17.2933737,14.572903 17.2414572,14.4012902 C17.7808116,13.874915 18.3591033,13.3615188 19.0974708,12.781785 C19.7421002,16.0078163 21.2707516,19.0232975 23.5233492,21.5398038 C22.9032359,22.3834463 22.218227,23.0944135 21.6384932,23.6856843 C21.3500684,23.4895554 21.019822,23.3828382 20.62468,23.3828382 C19.8747756,23.3828382 19.2301462,23.8313388 18.9532584,24.5033686 C16.6876816,23.9366138 14.6196759,23.0799922 12.8155788,21.9883044 C13.3030167,20.1827652 14.0933006,18.4579849 15.1734515,16.8384797 C15.1994097,16.8514588 15.2253679,16.8514588 15.2513262,16.8514588 L15.2513262,16.8514588 Z M20.62468,31.930307 C18.0966367,31.930307 15.6868476,31.0751274 13.6448001,29.4686014 C15.8714395,29.0071217 17.9509822,28.1375209 19.8343961,26.8727782 C20.0593674,27.0054536 20.321834,27.0717913 20.62468,27.0717913 C21.1524974,27.0717913 21.6384932,26.8338409 22.0480564,26.3997616 L22.2975438,26.4257198 C22.8642985,26.4660993 23.4570115,26.5180157 24.0367453,26.5180157 C25.7485465,26.5180157 27.5266853,26.3074656 29.3048241,25.8993446 C29.4360574,25.951261 29.5543116,26.0175987 29.686987,26.0695152 C29.896095,26.1618111 30.1066451,26.2670862 30.3186373,26.346403 C28.3299483,29.7844265 24.6294583,31.930307 20.62468,31.930307 L20.62468,31.930307 Z M29.5802698,11.7275924 C27.1964389,9.35674061 24.009345,8.04008143 20.62468,8.04008143 C17.2414572,8.04008143 14.0529211,9.35674061 11.6690902,11.7275924 C9.29968057,14.1114233 7.98157927,17.2985173 7.98157927,20.6831822 C7.98157927,24.0692892 9.29968057,27.2549411 11.6690902,29.638772 C14.0529211,32.0226029 17.227036,33.3262829 20.62468,33.3262829 C24.0237662,33.3262829 27.1964389,32.0096238 29.5802698,29.638772 C31.9655429,27.2693623 33.2677808,24.0822684 33.2677808,20.6831822 C33.2677808,17.2855381 31.9511216,14.1114233 29.5802698,11.7275924 L29.5802698,11.7275924 Z" id="Fill-104" fill="#FFFFFF"></path>
                        </g>
                    </g>
                    <g id="编组-37" transform="translate(217.000000, 13.827085)">
                        <text id="智慧营销系统" font-family="PingFangSC-Regular, PingFang SC" font-size="14" font-weight="normal" letter-spacing="0.0310619642" fill="#3E3A39" fill-opacity="0.85">
                            <tspan x="6.93902875" y="61.3408142">智慧营销系统</tspan>
                        </text>
                        <g id="编组" transform="translate(29.231132, 0.000000)">
                            <path d="M39.7113349,12.7287149 C38.6831005,10.2958517 37.2106919,8.11103393 35.3316044,6.23194641 C33.4568432,4.35718526 31.2720254,2.88045033 28.8348359,1.85221594 C26.3154454,0.786486337 23.6374212,0.247131976 20.8800802,0.247131976 C18.1227392,0.247131976 15.444715,0.786486337 12.9253244,1.85221594 C10.4924613,2.88045033 8.3076435,4.35718526 6.42855598,6.23194641 C4.55379483,8.10670756 3.07705989,10.2929675 2.04882551,12.7287149 C0.983095904,15.2481054 0.443741543,17.9261296 0.443741543,20.6834706 C0.443741543,23.4408116 0.983095904,26.1202779 2.04882551,28.6382264 C3.07705989,31.0710895 4.54946846,33.2559073 6.42855598,35.1349948 C8.30331713,37.009756 10.4881349,38.4864909 12.9253244,39.5147253 C15.444715,40.5804549 18.1227392,41.1198093 20.8800802,41.1198093 C23.6374212,41.1198093 26.3154454,40.5804549 28.8348359,39.5147253 C31.2676991,38.4864909 33.4525169,37.0140823 35.3316044,35.1349948 C37.2063655,33.2602337 38.6831005,31.0754159 39.7113349,28.6382264 C40.7770645,26.1202779 41.3164188,23.4408116 41.3164188,20.6834706 C41.3164188,17.9261296 40.7770645,15.2481054 39.7113349,12.7287149" id="Fill-106" fill="#47BBD1"></path>
                            <path d="M28.9187676,20.9786734 L27.9150493,19.9749551 L27.8141006,19.8740064 L22.6945605,16.0595886 C22.6945605,15.7581847 22.6945605,15.4567807 22.4941053,15.2563255 C22.1927014,14.9549216 21.5898936,14.9549216 21.2884897,15.2563255 C21.1889831,15.3572742 19.7829123,16.8628516 17.0731614,16.7619029 C16.4703535,16.7619029 15.9684944,16.460499 15.766597,16.1605372 L19.582457,12.9474851 L28.819261,11.9437668 L32.2313263,17.4642173 C32.2313263,17.565166 28.9187676,20.9786734 28.9187676,20.9786734 L28.9187676,20.9786734 Z M30.5252937,25.9972648 C30.2238897,26.2986687 29.7220306,26.3996174 29.4206267,26.0982134 L27.8141006,24.592636 C27.5126967,24.2912321 26.911331,24.2912321 26.6099271,24.592636 C26.3085232,24.8940399 26.3085232,25.4968478 26.6099271,25.7968095 L28.2164532,27.3038291 L28.5178571,27.605233 C28.7183123,27.7047395 28.819261,27.9051948 28.819261,28.2065987 C28.819261,28.4070539 28.7183123,28.6089513 28.6173637,28.8094065 C28.5178571,29.0098617 28.3174019,29.1108104 28.015998,29.1108104 C27.8141006,29.1108104 27.6136454,29.0098617 27.4131901,28.9103552 L26.3085232,27.9051948 L25.2038562,26.9014765 C24.9024523,26.6000726 24.3010866,26.6000726 23.9996827,26.9014765 C23.6982788,27.2028804 23.6982788,27.8056882 23.9996827,28.10565 L25.1029076,29.1108104 C25.4043115,29.4122143 25.4043115,29.9140734 25.1029076,30.2140352 C24.8029458,30.5154391 24.3010866,30.6163878 23.8987341,30.2140352 L21.490387,28.0061434 C21.1889831,27.7047395 20.5861753,27.7047395 20.2847714,28.0061434 C19.9833675,28.3075474 19.9833675,28.9103552 20.2847714,29.210317 L20.9870858,29.9140734 C21.1889831,30.1145287 21.2884897,30.3149839 21.2884897,30.5154391 C21.2884897,30.6163878 21.2884897,30.9177917 21.0880345,31.118247 C20.7866305,31.4196509 20.2847714,31.4196509 19.9833675,31.2191956 L18.779194,29.9140734 C19.0805979,29.6126695 19.2810531,29.1108104 19.2810531,28.7084578 C19.3820018,28.10565 19.1815466,27.5042843 18.779194,27.1033738 C18.3768414,26.6000726 17.8749823,26.3996174 17.2736166,26.2986687 L16.7717574,26.2986687 C16.7717574,25.7968095 16.6708088,25.2963925 16.2698983,24.7945334 C15.9684944,24.3921808 15.4666353,24.0907769 15.0657248,23.9898282 C15.26618,23.2875139 15.1652314,22.5851995 14.6633722,21.9823917 C14.462917,21.6809878 14.1615131,21.4805325 13.8601092,21.3795839 C14.0605644,20.6772695 13.9596157,19.9749551 13.4577566,19.3721473 C12.6559357,18.4693777 11.3508135,18.2689225 10.3470952,19.0707434 L10.2461465,19.1716921 L9.24242825,17.565166 L14.2610196,12.144222 L16.1689496,13.5502929 L14.1615131,15.3572742 C13.8601092,15.6586781 13.7591605,16.0595886 13.8601092,16.3609925 C13.8601092,16.460499 14.7643209,18.368429 16.9722127,18.4693777 C19.0805979,18.5688843 20.5861753,17.8665699 21.490387,17.2637621 L26.8103823,21.1791286 L30.5252937,24.8940399 C30.8266976,25.1954438 30.8266976,25.697303 30.5252937,25.9972648 L30.5252937,25.9972648 Z M16.2698983,30.01358 C16.068001,30.2140352 15.6670905,30.2140352 15.4666353,29.9140734 C15.26618,29.7136182 15.26618,29.3112656 15.5661418,29.1108104 L17.0731614,27.9051948 C17.1726679,27.8056882 17.2736166,27.8056882 17.3745653,27.8056882 L17.4740718,27.8056882 C17.5750205,27.8056882 17.7754757,27.9051948 17.8749823,28.0061434 C17.975931,28.10565 17.975931,28.3075474 17.975931,28.4070539 C17.975931,28.5080026 17.8749823,28.7084578 17.7754757,28.8094065 L16.2698983,30.01358 Z M13.35825,27.9051948 C13.2573014,27.9051948 13.0568461,27.8056882 12.9573396,27.7047395 C12.7554422,27.5042843 12.7554422,27.1033738 13.0568461,26.9014765 L14.5624235,25.697303 C14.6633722,25.5963543 14.7643209,25.5963543 14.9647761,25.5963543 L15.0657248,25.5963543 C15.1652314,25.5963543 15.3656866,25.697303 15.4666353,25.7968095 C15.5661418,25.8977582 15.5661418,26.0982134 15.5661418,26.1991621 C15.5661418,26.2986687 15.4666353,26.500566 15.3656866,26.6000726 L13.8601092,27.8056882 C13.6596539,27.9051948 13.4577566,27.9051948 13.35825,27.9051948 L13.35825,27.9051948 Z M11.45032,24.1917256 L12.9573396,22.9861099 C13.0568461,22.8866034 13.1577948,22.8866034 13.2573014,22.8866034 L13.35825,22.8866034 C13.4577566,22.8866034 13.6596539,22.9861099 13.7591605,23.0870586 C13.8601092,23.2875139 13.8601092,23.5889178 13.6596539,23.789373 L12.1540765,24.9949886 C12.0531278,25.0944952 11.8526726,25.0944952 11.7517239,25.0944952 C11.6507753,25.0944952 11.45032,24.9949886 11.3508135,24.8940399 C11.1489161,24.6935847 11.1489161,24.3921808 11.45032,24.1917256 L11.45032,24.1917256 Z M12.3545318,21.1791286 L10.8489543,22.4842508 C10.7480057,22.4842508 10.5475504,22.5851995 10.4466018,22.5851995 C10.3470952,22.5851995 10.1451978,22.4842508 10.0456913,22.3847443 C9.84379394,22.0833403 9.94474262,21.7819364 10.1451978,21.5800391 L11.6507753,20.3773077 C11.7517239,20.276359 11.8526726,20.276359 11.9521792,20.276359 L12.0531278,20.276359 C12.1540765,20.276359 12.3545318,20.3773077 12.4540383,20.4768143 C12.6559357,20.6772695 12.6559357,20.9786734 12.3545318,21.1791286 L12.3545318,21.1791286 Z M33.9388011,17.1628134 L29.9224858,10.6386446 C29.7220306,10.3372407 29.4206267,10.236292 29.1192228,10.236292 L19.0805979,11.340959 C18.8801427,11.340959 18.779194,11.4419076 18.6782453,11.5428563 L17.7754757,12.3446772 L14.9647761,10.3372407 C14.5624235,10.0358368 14.1615131,10.1367855 13.8601092,10.4367472 L7.93730606,16.8628516 C7.63590216,17.1628134 7.63590216,17.565166 7.83635739,17.8665699 L9.24242825,20.276359 L9.04053089,20.3773077 C8.13776129,21.1791286 7.93730606,22.4842508 8.74056911,23.4879691 C8.94102434,23.789373 9.24242825,23.9898282 9.54239003,24.0907769 C9.3419348,24.7945334 9.44288348,25.4968478 9.94474262,26.0982134 C10.2461465,26.500566 10.7480057,26.8019699 11.1489161,26.9014765 C10.9484609,27.605233 11.0494096,28.3075474 11.5512687,28.9103552 C11.9521792,29.4122143 12.6559357,29.7136182 13.2573014,29.7136182 L13.5587053,29.7136182 C13.5587053,30.2140352 13.6596539,30.7158944 14.0605644,31.2191956 C14.462917,31.7210548 15.1652314,32.0224587 15.766597,32.0224587 C16.2698983,32.0224587 16.7717574,31.8220034 17.1726679,31.5205995 L17.674527,31.118247 L18.8801427,32.5228757 L18.9796492,32.6238244 C19.4815084,33.026177 19.9833675,33.3275809 20.687124,33.3275809 L20.7866305,33.3275809 C21.490387,33.3275809 22.0917527,33.026177 22.4941053,32.5228757 C22.6945605,32.3224205 22.7940671,32.1219652 22.8950158,31.8220034 C23.8987341,32.6238244 25.4043115,32.5228757 26.3085232,31.6201061 C26.5104205,31.4196509 26.7108758,31.118247 26.8103823,30.816843 C27.2112928,31.0172983 27.5126967,31.0172983 27.9150493,31.0172983 C28.6173637,31.0172983 29.2201715,30.7158944 29.6210819,30.2140352 C30.1229411,29.6126695 30.3248384,28.9103552 30.2238897,28.2065987 C30.7257489,28.10565 31.1266593,27.8056882 31.5290119,27.5042843 C32.4332237,26.500566 32.4332237,24.8940399 31.4280633,23.9898282 L29.9224858,22.4842508 L33.6373972,18.5688843 C34.1392563,17.9675186 34.1392563,17.565166 33.9388011,17.1628134 L33.9388011,17.1628134 Z" id="Fill-108" fill="#FFFFFF"></path>
                        </g>
                    </g>
                    <g id="编组-40" transform="translate(797.000000, 13.827085)">
                        <text id="智慧营销管理系统" font-family="PingFangSC-Regular, PingFang SC" font-size="14" font-weight="normal" letter-spacing="0.0310619642" fill="#3E3A39" fill-opacity="0.85">
                            <tspan x="9.49239233" y="61.2229572">智慧营销管理系统</tspan>
                        </text>
                        <g id="编组" transform="translate(44.487121, 0.000000)">
                            <path d="M39.7022495,12.7287149 C38.6740151,10.2958517 37.2016065,8.11103393 35.322519,6.23194641 C33.4477579,4.35718526 31.2614979,2.88045033 28.8257506,1.85221594 C26.30636,0.786486337 23.6283358,0.247131976 20.8709948,0.247131976 C18.1136538,0.247131976 15.4341875,0.786486337 12.9147969,1.85221594 C10.4833759,2.88045033 8.29855812,4.35718526 6.41802847,6.23194641 C4.54470945,8.10670756 3.06797451,10.2929675 2.03829801,12.7287149 C0.974010523,15.2481054 0.434656162,17.9261296 0.434656162,20.6834706 C0.434656162,23.4408116 0.974010523,26.1202779 2.03829801,28.6382264 C3.06797451,31.0710895 4.54038308,33.2559073 6.41802847,35.1349948 C8.29278962,37.009756 10.4790495,38.4864909 12.9147969,39.5147253 C15.4341875,40.5804549 18.1136538,41.1198093 20.8709948,41.1198093 C23.6283358,41.1198093 26.30636,40.5804549 28.8257506,39.5147253 C31.2586137,38.4864909 33.4434315,37.0140823 35.322519,35.1349948 C37.1972802,33.2602337 38.6740151,31.0754159 39.7022495,28.6382264 C40.766537,26.1202779 41.3058913,23.4408116 41.3058913,20.6834706 C41.3058913,17.9261296 40.766537,15.2481054 39.7022495,12.7287149" id="Fill-110" fill="#47BBD1"></path>
                            <path d="M20.8708506,23.3932215 C19.3768102,23.3932215 18.1625418,22.177511 18.1625418,20.6849127 C18.1625418,19.5888985 18.8215924,18.5996015 19.8339635,18.1799434 C20.8463345,17.7602853 22.0130128,17.9924673 22.7888755,18.7668879 C23.563296,19.5427506 23.795478,20.7094288 23.3758199,21.7217999 C22.9547197,22.7341709 21.9668648,23.3932215 20.8708506,23.3932215 L20.8708506,23.3932215 Z M20.8708506,16.1710647 C19.2383663,16.1407801 17.7154834,16.9945175 16.8905885,18.4034726 C16.0656936,19.8124277 16.0656936,21.5573977 16.8905885,22.9663528 C17.7154834,24.375308 19.2383663,25.2276032 20.8708506,25.1973186 C23.3311141,25.1511706 25.2996133,23.1451762 25.2996133,20.6849127 C25.2996133,18.2246493 23.3311141,16.2172127 20.8708506,16.1710647 L20.8708506,16.1710647 Z M31.7055279,21.840054 L29.1399894,22.6952335 C28.8717543,22.7846452 28.6597621,22.9937532 28.5703504,23.2619883 C28.4506541,23.6181929 28.3064417,23.9657447 28.1391553,24.3017596 C28.0122484,24.5541313 28.0122484,24.8555352 28.1391553,25.1079069 L29.3490974,27.5263488 L27.716613,29.1588331 L25.2938448,27.9517754 C25.0414731,27.8248685 24.7429534,27.8248685 24.4891396,27.9517754 C24.1430299,28.1233881 23.7925937,28.2690426 23.4508104,28.3829704 C23.1825753,28.4738242 22.9705831,28.6843743 22.8811714,28.9526094 L22.027434,31.5181479 L19.7157093,31.5181479 L18.8590877,28.9526094 C18.769676,28.6843743 18.5591259,28.4738242 18.2894487,28.3829704 C17.9346862,28.2632742 17.5885765,28.1190618 17.2525616,27.9517754 C16.9987478,27.8248685 16.7002281,27.8248685 16.4464143,27.9517754 L14.0250881,29.1617174 L12.3926038,27.5306752 L13.603988,25.1107912 C13.7308949,24.8584195 13.7308949,24.5584577 13.603988,24.3017596 C13.4352595,23.9657447 13.2910471,23.619635 13.1699086,23.2634304 C13.080497,22.9951953 12.8699469,22.7846452 12.6002697,22.6952335 L10.0361733,21.840054 L10.0361733,19.5297714 L12.6002697,18.6745919 C12.8699469,18.5851803 13.080497,18.3746302 13.1713508,18.104953 C13.2867207,17.7588432 13.4309331,17.4112913 13.6025458,17.0680658 C13.7308949,16.814252 13.7308949,16.5142902 13.6025458,16.2590343 L12.394046,13.8391503 L14.0250881,12.2052239 L16.4464143,13.4180501 C16.7002281,13.544957 17.0001899,13.544957 17.2554458,13.4180501 C17.5972292,13.2464374 17.9462232,13.1007828 18.2894487,12.9854129 C18.5591259,12.8960012 18.769676,12.684009 18.8590877,12.415774 L19.7157093,9.85023543 L22.0259919,9.85023543 L22.8811714,12.415774 C22.9705831,12.684009 23.1811332,12.8960012 23.4493682,12.9854129 C23.7925937,13.0993407 24.1430299,13.2449952 24.4891396,13.4180501 C24.7415113,13.5420728 25.0414731,13.5420728 25.2938448,13.4151659 L27.7151709,12.2052239 L29.3476552,13.8391503 L28.1391553,16.2590343 C28.0122484,16.5128481 28.0122484,16.8128099 28.1391553,17.0666237 C28.309326,17.4112913 28.4549805,17.7588432 28.5703504,18.1035109 C28.6612042,18.3717459 28.8717543,18.5837381 29.1399894,18.6731498 L31.7055279,19.5283293 L31.7055279,21.840054 Z M32.8923959,18.0227519 L30.12496,17.0997926 C30.0701593,16.9570223 30.0110322,16.814252 29.9475788,16.6758081 L31.2541431,14.0670059 C31.427198,13.719454 31.357976,13.2983538 31.0854146,13.0243503 L28.5314131,10.4703487 C28.2588516,10.1949031 27.8377514,10.1271232 27.4901996,10.3016202 L24.8799552,11.6067424 C24.7400692,11.543289 24.598741,11.4841619 24.4559708,11.4293612 L23.5330114,8.66192528 C23.4104309,8.29274155 23.0643211,8.0432541 22.6763898,8.0432541 L19.0653114,8.0432541 C18.6759379,8.0432541 18.3312703,8.29274155 18.2086898,8.66192528 L17.2857304,11.4293612 C17.1429602,11.4841619 17.0001899,11.543289 16.861746,11.6067424 L14.2515016,10.3001781 C13.9039497,10.1256811 13.4842917,10.1934609 13.208846,10.4689066 L10.6562866,13.0243503 C10.3808409,13.2983538 10.3130611,13.719454 10.486116,14.0670059 L11.7912381,16.6772503 C11.7277847,16.8156942 11.6700997,16.9570223 11.6167411,17.0997926 L8.84786313,18.0227519 C8.4786794,18.1453324 8.22919195,18.4900001 8.23062786,18.8793735 L8.23062786,22.4904519 C8.23062786,22.8783833 8.4786794,23.224493 8.84786313,23.3470736 L11.6167411,24.2700329 C11.6715418,24.4128032 11.7306689,24.5541313 11.7941224,24.6940173 L10.4875581,27.3042617 C10.3145032,27.6518136 10.382283,28.0714717 10.6562866,28.3469173 L13.2102881,30.8994767 C13.4857338,31.1763645 13.9053919,31.2441444 14.2529437,31.0682053 L16.8631881,29.7630831 C17.001632,29.8236523 17.1429602,29.8827794 17.2871725,29.9375801 L18.2101319,32.7064581 C18.3298282,33.0756418 18.6759379,33.3251293 19.0653114,33.3236933 L22.6763898,33.3236933 C23.0657633,33.3251293 23.411873,33.0756418 23.5344535,32.7064581 L24.4559708,29.9419064 C24.5972989,29.8856636 24.7400692,29.8236523 24.8799552,29.7630831 L27.4901996,31.0682053 C27.8377514,31.2412601 28.2574095,31.1734803 28.5314131,30.8994767 L31.0854146,28.3469173 C31.3594182,28.0714717 31.4286401,27.6518136 31.2541431,27.3042617 L29.9490209,24.6940173 C30.0110322,24.5541313 30.0687172,24.4128032 30.12496,24.2700329 L32.8923959,23.3470736 C33.2615797,23.224493 33.5110671,22.8783833 33.5110671,22.4904519 L33.5110671,18.8793735 C33.5110671,18.4900001 33.2615797,18.1453324 32.8923959,18.0227519 L32.8923959,18.0227519 Z" id="Fill-112" fill="#FFFFFF"></path>
                        </g>
                    </g>
                    <g id="编组-39" transform="translate(620.000000, 13.827085)">
                        <text id="智慧理财系统" font-family="PingFangSC-Regular, PingFang SC" font-size="14" font-weight="normal" letter-spacing="0.0310619642" fill="#3E3A39" fill-opacity="0.85">
                            <tspan x="6.93902875" y="61.3408142">智慧理财系统</tspan>
                        </text>
                        <g id="编组" transform="translate(28.497715, 0.000000)">
                            <path d="M39.7568579,12.7287149 C38.7286235,10.2958517 37.256215,8.11103393 35.3771274,6.23194641 C33.5023663,4.35718526 31.3161064,2.88045033 28.880359,1.85221594 C26.3609684,0.786486337 23.6829442,0.247131976 20.9256032,0.247131976 C18.1682622,0.247131976 15.4887959,0.786486337 12.9694053,1.85221594 C10.5379843,2.88045033 8.35316654,4.35718526 6.4726369,6.23194641 C4.59931788,8.10670756 3.12258294,10.2929675 2.09290643,12.7287149 C1.02861895,15.2481054 0.489264589,17.9261296 0.489264589,20.6834706 C0.489264589,23.4408116 1.02861895,26.1202779 2.09290643,28.6382264 C3.12258294,31.0710895 4.5949915,33.2559073 6.4726369,35.1349948 C8.34884017,37.009756 10.533658,38.4864909 12.9694053,39.5147253 C15.4887959,40.5804549 18.1682622,41.1198093 20.9256032,41.1198093 C23.6829442,41.1198093 26.3609684,40.5804549 28.880359,39.5147253 C31.3132221,38.4864909 33.4980399,37.0140823 35.3771274,35.1349948 C37.2518886,33.2602337 38.7286235,31.0754159 39.7568579,28.6382264 C40.8225875,26.1202779 41.3619419,23.4408116 41.3619419,20.6834706 C41.3619419,17.9261296 40.8225875,15.2481054 39.7568579,12.7287149" id="Fill-114" fill="#47BBD1"></path>
                            <path d="M14.7993164,17.1205592 C14.0854651,17.1205592 13.5100576,17.6959666 13.5100576,18.409818 C13.5100576,19.1236693 14.0854651,19.6990768 14.7993164,19.6990768 C15.5131678,19.6990768 16.0885753,19.1236693 16.0885753,18.409818 C16.0885753,17.6988509 15.5131678,17.1205592 14.7993164,17.1205592" id="Fill-116" fill="#FFFFFF"></path>
                            <path d="M29.546476,29.0505296 L29.161429,29.3202068 L29.1945978,29.7860128 C29.2003663,29.8754245 29.1974821,29.9691626 29.1816187,30.0629006 L29.0749015,30.6498451 C28.9681843,31.2396738 28.4547882,31.6694267 27.8534225,31.6694267 L25.9094394,31.6694267 C25.4609389,31.6694267 25.0499335,31.428592 24.8307307,31.0392186 L24.5971066,30.625329 L19.5424621,30.5517807 L19.3059538,31.0017233 C19.0925195,31.4098444 18.6699771,31.6636582 18.2084975,31.6636582 L16.2645144,31.6636582 C15.6631487,31.6636582 15.1511947,31.2339053 15.0430354,30.6440766 L14.9363182,30.0571321 C14.9175706,29.950415 14.9146864,29.8436978 14.9247812,29.7369806 L14.9795819,29.2394479 L14.5656924,28.9596758 C12.8380278,27.8016503 11.5430005,26.0855228 10.8983711,24.0953917 L10.733969,23.5892062 L10.2047095,23.528637 C10.1744249,23.5257527 10.141256,23.5199842 10.1109714,23.5156579 C9.19233848,23.3252975 8.53472995,22.516266 8.53472995,21.574559 L8.53472995,19.992549 C8.53472995,19.9290956 8.5376142,19.8685264 8.54482482,19.8093993 C8.6457735,19.0349787 9.35674061,18.4927401 10.1282769,18.596573 L10.7830012,18.6816583 L11.0108568,18.061545 C11.4261885,16.9366884 12.0563967,15.9026855 12.8683125,15.0215477 L13.4941942,14.3423074 L12.7442898,13.7957424 C12.3852009,13.5347179 12.1025446,13.1813976 11.9266055,12.767508 L11.8198883,12.5151363 C11.7795089,12.4156297 11.757877,12.3089126 11.757877,12.2021954 C11.757877,11.7637897 12.1140816,11.4104693 12.5496031,11.4104693 L16.4433377,11.4104693 C16.7779105,11.4104693 17.0894093,11.5705451 17.2826539,11.8431065 L17.5811736,12.2685331 L18.0945697,12.1805635 C18.6368083,12.0897097 19.1848154,12.0450039 19.7371489,12.0536566 L19.8582873,12.0565409 L23.8601813,12.1589317 C29.0287535,12.290165 33.1835127,16.4463662 33.3176302,21.6134964 C33.3926207,24.5684084 31.9764549,27.3632446 29.546476,29.0505296 M26.3507294,7.87293926 C27.2938784,7.71142138 28.242796,7.92629785 29.0229851,8.4771892 C29.8046162,9.02808056 30.3223387,9.85153334 30.4838566,10.7946824 C30.5977844,11.4393118 30.5314467,12.0839412 30.3007069,12.6795384 C28.4951677,11.3628792 26.2901601,10.5653847 23.8976765,10.5048155 L23.4924397,10.4932785 C23.8428758,9.16219809 24.9489849,8.11521609 26.3507294,7.87293926 M34.9659779,21.5673484 C34.8895453,18.5287932 33.6233605,15.7873156 31.6115976,13.7928581 C32.1278779,12.7891398 32.3095856,11.6311143 32.1163409,10.5134682 C31.8812747,9.13479773 31.1212754,7.93350847 29.976229,7.12736118 C28.8355089,6.32121388 27.4481857,6.00827298 26.0709573,6.24478131 C24.8754365,6.44956292 23.7823066,7.06967622 22.9934648,7.98686706 C22.3863306,8.69062355 21.9810938,9.54436093 21.8138074,10.4500148 L19.901551,10.3995404 C19.3621966,10.3865613 18.8185159,10.4139617 18.2806037,10.4802994 C17.7917237,10.021704 17.1384415,9.75346891 16.446222,9.75346891 L12.5496031,9.75346891 C12.2179145,9.75346891 11.8919945,9.81836449 11.5877064,9.94959777 C10.3445955,10.4831836 9.77207231,11.9195391 10.3013318,13.1597657 L10.408049,13.4121374 C10.5839881,13.8173742 10.8219386,14.1966528 11.1146897,14.5283413 C10.5335138,15.2667088 10.0504022,16.0771825 9.67833425,16.9395726 C8.11218763,17.0736901 6.88061377,18.3874651 6.88061377,19.992549 L6.88061377,21.574559 C6.88061377,23.1854115 7.93913275,24.6044615 9.48364752,25.0587305 C10.2321099,27.0676092 11.5516533,28.811137 13.2793178,30.0816483 C13.2879705,30.1753863 13.2980654,30.2662401 13.3153709,30.3585361 L13.4192038,30.9454805 C13.665807,32.3227089 14.8656541,33.3264272 16.2673986,33.3264272 L18.2113817,33.3264272 C19.098288,33.3264272 19.9347199,32.9211903 20.482727,32.2246445 L23.6755894,32.2707924 C24.2250386,32.9399379 25.044165,33.3264272 25.9108815,33.3264272 L27.8563068,33.3264272 C29.255167,33.3264272 30.4564563,32.3227089 30.7045016,30.9454805 L30.8083345,30.3585361 C30.8184294,30.2921983 30.8299664,30.2273028 30.8357349,30.1609651 C33.5152012,28.1290124 35.0539475,24.9303815 34.9659779,21.5673484" id="Fill-118" fill="#FFFFFF"></path>
                        </g>
                    </g>
                    <text id="......" font-family="LucidaGrande, Lucida Grande" font-size="11.2678" font-weight="normal" letter-spacing="0.025" fill="#040000">
                        <tspan x="1007" y="43">......</tspan>
                    </text>
                </g>
                <g id="编组-31" transform="translate(121.000000, 375.000000)">
                    <polygon id="Fill-5" fill-opacity="0.104594624" fill="#80B3DA" points="-1.6881288e-12 94.2452043 1079 94.2452043 1079 0 -1.6881288e-12 0"></polygon>
                    <g id="编组-27" transform="translate(413.000000, 9.000000)">
                        <text id="BOE智慧银行AIoT平台" font-family="Gotham-Medium, Gotham" font-size="16" font-weight="normal" letter-spacing="0.0354993876" fill="#4B96E6">
                            <tspan x="40.151058" y="15">BOE</tspan>
                            <tspan x="76.1295562" y="15" font-family="PingFangSC-Regular, PingFang SC">智慧银行</tspan>
                            <tspan x="140.271554" y="15">AIoT</tspan>
                            <tspan x="179.005551" y="15" font-family="PingFangSC-Regular, PingFang SC">平台</tspan>
                        </text>
                        <line x1="0.417014178" y1="10.4253545" x2="29.6080067" y2="10.4253545" id="直线-2" stroke="#0066B5" opacity="0.14953032" stroke-linecap="square"></line>
                        <line x1="221.434529" y1="10.4253545" x2="250.625521" y2="10.4253545" id="直线-2备份" stroke="#0066B5" opacity="0.14953032" stroke-linecap="square"></line>
                    </g>
                    <g id="编组-13" transform="translate(53.299416, 53.377815)" fill="#3E3A39" fill-opacity="0.85" font-family="PingFangSC-Regular, PingFang SC" font-size="14" font-weight="normal" letter-spacing="0.0310619642">
                        <text id="物联网技术">
                            <tspan x="1.13001815" y="15">物联网技术</tspan>
                        </text>
                        <text id="云计算平台">
                            <tspan x="155.295503" y="15">云计算平台</tspan>
                        </text>
                        <text id="金融大数据挖掘">
                            <tspan x="309.429926" y="15">金融大数据挖掘</tspan>
                        </text>
                        <text id="计算机视觉">
                            <tspan x="491.626474" y="15">计算机视觉</tspan>
                        </text>
                        <text id="自然语言处理">
                            <tspan x="645.776428" y="15">自然语言处理</tspan>
                        </text>
                        <text id="深度学习">
                            <tspan x="813.972975" y="15">深度学习</tspan>
                        </text>
                    </g>
                    <text id="......" font-family="LucidaGrande, Lucida Grande" font-size="11.2678" font-weight="normal" letter-spacing="0.025" fill="#040000">
                        <tspan x="1007" y="53">......</tspan>
                    </text>
                </g>
                <g id="编组-32" transform="translate(121.000000, 480.000000)">
                    <polygon id="Fill-7" fill-opacity="0.104594624" fill="#80B3DA" points="3.57006091e-14 94.2702012 1079 94.2702012 1079 0 3.57006091e-14 0"></polygon>
                    <g id="编组-42" transform="translate(40.000000, 13.000000)">
                        <polygon id="Fill-11" fill="#80B3DA" opacity="0.146623884" points="2.13162821e-13 56.7669549 108.423686 56.7669549 108.423686 34.2193468 2.13162821e-13 34.2193468"></polygon>
                        <polygon id="Fill-12" fill="#80B3DA" opacity="0.146623884" points="114 56.7669549 222.423686 56.7669549 222.423686 34.2193468 114 34.2193468"></polygon>
                        <text id="近场通讯" font-family="PingFangSC-Regular, PingFang SC" font-size="14" font-weight="normal" letter-spacing="0.0310619642" fill="#007AFF">
                            <tspan x="75.8055338" y="15">近场通讯</tspan>
                        </text>
                        <text id="RFID" font-family="Gotham-Medium, Gotham" font-size="12" font-weight="normal" letter-spacing="0.0266245407" fill="#4B96E6">
                            <tspan x="38.9895483" y="50.2193468">RFID</tspan>
                        </text>
                        <text id="NFC" font-family="Gotham-Medium, Gotham" font-size="12" font-weight="normal" letter-spacing="0.0266245407" fill="#4B96E6">
                            <tspan x="154.918613" y="49.2193468">NFC</tspan>
                        </text>
                    </g>
                    <g id="编组-46" transform="translate(708.000000, 13.000000)">
                        <g id="编组-45" transform="translate(0.000000, 34.219347)">
                            <polygon id="Fill-13" fill="#80B3DA" opacity="0.146623884" points="5.1159077e-13 22.5476081 50.0417014 22.5476081 50.0417014 -1.77635684e-15 5.1159077e-13 -1.77635684e-15"></polygon>
                            <polygon id="Fill-14" fill="#80B3DA" opacity="0.146623884" points="58 22.5476081 108.041701 22.5476081 108.041701 -1.77635684e-15 58 -1.77635684e-15"></polygon>
                            <polygon id="Fill-15" fill="#80B3DA" opacity="0.146623884" points="117 22.5476081 167.041701 22.5476081 167.041701 4.79616347e-14 117 4.79616347e-14"></polygon>
                            <text id="NB-IoT" font-family="Gotham-Medium, Gotham" font-size="12" font-weight="normal" letter-spacing="0.0266245407" fill="#4B96E6">
                                <tspan x="121" y="16">NB-IoT</tspan>
                            </text>
                            <polygon id="Fill-16" fill="#80B3DA" opacity="0.146623884" points="175 22.5476081 225.041701 22.5476081 225.041701 4.79616347e-14 175 4.79616347e-14"></polygon>
                            <text id="4G" font-family="Gotham-Medium, Gotham" font-size="12" font-weight="normal" letter-spacing="0.0266245407" fill="#4B96E6">
                                <tspan x="16" y="16">4G</tspan>
                            </text>
                            <text id="5G" font-family="Gotham-Medium, Gotham" font-size="12" font-weight="normal" letter-spacing="0.0266245407" fill="#4B96E6">
                                <tspan x="75" y="16">5G</tspan>
                            </text>
                            <text id="LoRa" font-family="Gotham-Medium, Gotham" font-size="12" font-weight="normal" letter-spacing="0.0266245407" fill="#4B96E6">
                                <tspan x="184" y="16">LoRa</tspan>
                            </text>
                        </g>
                        <text id="广域网络" font-family="PingFangSC-Regular, PingFang SC" font-size="14" font-weight="normal" letter-spacing="0.0310619642" fill="#007AFF">
                            <tspan x="78.9932735" y="15">广域网络</tspan>
                        </text>
                    </g>
                    <g id="编组-44" transform="translate(324.000000, 13.000000)">
                        <g id="编组-43" transform="translate(0.000000, 34.219347)">
                            <polygon id="Fill-17" fill="#80B3DA" opacity="0.146623884" points="200 22.5476081 258.381985 22.5476081 258.381985 4.79616347e-14 200 4.79616347e-14"></polygon>
                            <polygon id="Fill-18" fill="#80B3DA" opacity="0.146623884" points="265 22.5476081 323.381985 22.5476081 323.381985 4.79616347e-14 265 4.79616347e-14"></polygon>
                            <polygon id="Fill-19" fill="#80B3DA" opacity="0.146623884" points="-2.87769808e-13 22.5476081 58.381985 22.5476081 58.381985 -1.77635684e-15 -2.87769808e-13 -1.77635684e-15"></polygon>
                            <polygon id="Fill-20" fill="#80B3DA" opacity="0.146623884" points="67 22.5476081 125.381985 22.5476081 125.381985 -1.77635684e-15 67 -1.77635684e-15"></polygon>
                            <polygon id="Fill-21" fill="#80B3DA" opacity="0.146623884" points="134 22.5476081 192.381985 22.5476081 192.381985 -1.77635684e-15 134 -1.77635684e-15"></polygon>
                            <text id="BTLE" font-family="Gotham-Medium, Gotham" font-size="12" font-weight="normal" letter-spacing="0.0266245407" fill="#4B96E6">
                                <tspan x="13" y="16">BTLE</tspan>
                            </text>
                            <text id="WiFi" font-family="Gotham-Medium, Gotham" font-size="12" font-weight="normal" letter-spacing="0.0266245407" fill="#4B96E6">
                                <tspan x="82" y="16">WiFi</tspan>
                            </text>
                            <text id="WiGig" font-family="Gotham-Medium, Gotham" font-size="12" font-weight="normal" letter-spacing="0.0266245407" fill="#4B96E6">
                                <tspan x="144" y="16">WiGig</tspan>
                            </text>
                            <text id="ZIGBEE" font-family="Gotham-Medium, Gotham" font-size="12" font-weight="normal" letter-spacing="0.0266245407" fill="#4B96E6">
                                <tspan x="206" y="16">ZIGBEE</tspan>
                            </text>
                            <text id="以太网" font-family="PingFangSC-Regular, PingFang SC" font-size="12" font-weight="normal" letter-spacing="0.0266245407" fill="#4B96E6">
                                <tspan x="276" y="16">以太网</tspan>
                            </text>
                        </g>
                        <text id="局域网络" font-family="PingFangSC-Regular, PingFang SC" font-size="14" font-weight="normal" letter-spacing="0.0310619642" fill="#007AFF">
                            <tspan x="126.815071" y="15">局域网络</tspan>
                        </text>
                    </g>
                    <text id="......" font-family="LucidaGrande, Lucida Grande" font-size="11.2678" font-weight="normal" letter-spacing="0.025" fill="#040000">
                        <tspan x="1007" y="52">......</tspan>
                    </text>
                    <line x1="418.184083" y1="8.28687396" x2="418.184083" y2="9.86430457" id="Stroke-86" stroke="#0066B5" stroke-width="0.5"></line>
                    <line x1="418.184083" y1="92.5562142" x2="418.184083" y2="94.1336448" id="Stroke-90" stroke="#0066B5" stroke-width="0.5"></line>
                    <line x1="831.004536" y1="8.28687396" x2="831.004536" y2="9.86430457" id="Stroke-92" stroke="#0066B5" stroke-width="0.5"></line>
                    <line x1="831.004536" y1="92.5562142" x2="831.004536" y2="94.1336448" id="Stroke-96" stroke="#0066B5" stroke-width="0.5"></line>
                    <line x1="292.857343" y1="8" x2="292.857343" y2="86.0985894" id="Stroke-88" stroke="#0066B5" stroke-width="0.5" opacity="0.2" stroke-dasharray="1.942,1.942"></line>
                    <g id="Stroke-94" opacity="0.2" stroke-dasharray="1.942,1.942">
                        <use fill="black" fill-opacity="1" filter="url(#filter-2)" xlink:href="#path-1"></use>
                        <use stroke="#0066B5" stroke-width="0.5" xlink:href="#path-1"></use>
                    </g>
                </g>
                <g id="编组-34" transform="translate(121.000000, 585.000000)">
                    <polygon id="Fill-9" fill-opacity="0.104594624" fill="#80B3DA" points="-1.6881288e-12 94.2702012 1079 94.2702012 1079 0 -1.6881288e-12 0"></polygon>
                    <g id="编组-47" transform="translate(873.000000, 18.000000)">
                        <text id="综合传感" font-family="PingFangSC-Regular, PingFang SC" font-size="14" font-weight="normal" letter-spacing="0.0310619642" fill="#3E3A39">
                            <tspan x="5.10672716" y="57.5354462">综合传感</tspan>
                        </text>
                        <path d="M23.5253182,5.81064673 C23.6884912,5.68733279 23.8877865,5.55031729 24.1119937,5.40084585 C24.828211,4.9287652 25.573077,4.50526277 26.3478374,4.12784737 C28.7779939,2.94577736 31.4012178,2.25073514 34.1103878,2.28062943 C37.5905812,2.31924289 40.9761095,3.56359267 44.2059383,6.28023618 L45.6458465,4.53017468 C42.0136904,1.47722041 38.1249416,0.0485225148 34.1315629,0.0011898905 C31.0424863,-0.0349323754 28.0866885,0.753529498 25.3675538,2.0738606 C24.5056018,2.48988945 23.6698073,2.96695248 22.8713807,3.49508492 C22.4254575,3.79153662 22.1078307,4.02695415 21.9309562,4.17144321 L23.3409701,5.95139901 C23.3671276,5.93022388 23.4318986,5.88289126 23.5253182,5.81064673 L23.5253182,5.81064673 Z M29.686033,10.8279049 C28.916255,11.2040747 28.34079,11.5839813 28.0044792,11.8580123 L29.4144932,13.6354769 C29.458089,13.598109 29.5589822,13.5258645 29.7146817,13.4212345 C30.0186069,13.2219392 30.3337426,13.0413279 30.658843,12.8818917 C33.1188938,11.6848745 35.6761011,11.71726 38.1324152,13.7824571 L39.5723235,12.0286588 C36.3524594,9.3194889 32.8685292,9.27962985 29.686033,10.8279049 L29.686033,10.8279049 Z M42.6726104,8.06392876 C37.7163864,3.89616663 32.3914661,3.83637806 27.4825748,6.2229388 C26.8398475,6.53433764 26.2170498,6.88808673 25.6204097,7.28667725 C25.2840989,7.51088442 25.0449446,7.68775896 24.9079291,7.79986254 L26.3179431,9.57608155 C26.4960632,9.44280285 26.6729378,9.31575212 26.8572859,9.19243818 C27.3704712,8.85239064 27.9060772,8.54846537 28.4591215,8.27692557 C32.6418308,6.24411392 37.0400281,6.29518333 41.2289653,9.81897265 L42.6726104,8.06392876 Z M40.8341116,23.7422378 C40.1938756,24.0050584 39.4602199,23.8568325 38.9719465,23.3698048 C38.4836731,22.8815314 38.3391841,22.1428933 38.6020047,21.5026573 C38.8673165,20.8624213 39.4926054,20.4501292 40.1876476,20.4501292 C41.1318089,20.4501292 41.8953589,21.2174159 41.8916357,22.1603316 C41.8916357,22.8553739 41.4755932,23.4781716 40.8341116,23.7422378 L40.8341116,23.7422378 Z M34.0094945,23.7422378 C33.3680129,24.0050584 32.6343572,23.8568325 32.1460838,23.3698048 C31.6578105,22.8815314 31.5133214,22.1428933 31.7773876,21.5026573 C32.0402082,20.8624213 32.6667427,20.4501292 33.3605393,20.4501292 C34.3047006,20.4501292 35.0694962,21.2174159 35.0694962,22.1603316 C35.0694962,22.8553739 34.6497305,23.4781716 34.0094945,23.7422378 L34.0094945,23.7422378 Z M27.1861231,23.7422378 C26.545887,24.0050584 25.8109858,23.8568325 25.3227124,23.3698048 C24.8356846,22.8815314 24.6911955,22.1428933 24.9540161,21.5026573 C25.2180824,20.8624213 25.8446168,20.4463924 26.5359223,20.4501042 C26.9868278,20.4501042 27.4215406,20.6307405 27.7441498,20.9533497 C28.0617766,21.2747133 28.2423879,21.7081805 28.2423879,22.1603316 C28.2423879,22.8553739 27.8263591,23.4781716 27.1861231,23.7422378 L27.1861231,23.7422378 Z M42.7448549,16.347138 L23.9774694,16.347138 C20.8709545,16.347138 18.3486239,18.8732054 18.3486239,21.9909307 C18.3486239,24.815941 20.4262769,27.1352396 23.1242365,27.5475316 L23.1242365,30.0250209 L44.6182303,30.0250209 L44.6182303,27.2872022 C46.8030046,26.5124419 48.3737004,24.443508 48.3737004,21.9909307 C48.3737004,18.8732054 45.8513698,16.347138 42.7448549,16.347138 L42.7448549,16.347138 Z" id="Fill-47" fill="#47BBD1"></path>
                    </g>
                    <g id="编组-52" transform="translate(206.000000, 18.000000)">
                        <text id="机器人" font-family="PingFangSC-Regular, PingFang SC" font-size="14" font-weight="normal" letter-spacing="0.0310619642" fill="#3E3A39">
                            <tspan x="3.46951438" y="57.5354462">机器人</tspan>
                        </text>
                        <g id="编组" transform="translate(9.174312, 0.000000)">
                            <path d="M4.15846539,19.0112427 C2.82644628,19.0016347 1.44802487,18.8887406 0.893926757,19.5637031 C0.481765107,20.0669224 0.559557207,20.9700751 0.559557207,21.8468057 L0.559557207,26.597965 C0.559557207,27.6224187 0.51997877,28.4583153 1.1873531,28.8822686 C1.71279096,29.2161468 2.56440974,29.1765138 3.48836151,29.1765138 L28.0979604,29.1765138 C28.7366745,29.0444037 29.2088862,28.7081234 29.4368034,28.2193161 C29.6360604,27.7917598 29.5200546,27.0015013 29.5200546,26.4502419 L29.5200546,22.5469892 C29.5200546,21.8444037 29.6851922,20.5028857 29.4368034,19.9684404 C28.9741451,18.9668057 27.841383,18.9980317 26.2145728,19.0112427 L4.15846539,19.0112427 Z" id="Fill-49" fill="#47BBD1"></path>
                            <path d="M15.310577,3.67914595 L15.310577,8.58523436 C17.5583592,8.59364137 19.1551444,9.28902085 20.514459,10.0852844 C24.1938888,12.2446839 25.1751611,14.6767106 25.0905452,20.1136414 L5.03792554,20.1136414 L5.03792554,17.7044337 C5.03792554,16.9586122 4.99425279,16.2356097 5.17167336,15.6134912 C5.98098415,12.7875363 7.62007734,10.984834 10.106695,9.6517231 C10.8313898,9.26259883 11.7853666,9.00078065 12.6642808,8.7833995 C13.1269391,8.71734445 13.5909622,8.65249041 14.0549852,8.58523436 L14.4125559,8.58523436 L14.4125559,3.67914595" id="Stroke-51" stroke="#47BBD1" stroke-width="0.934"></path>
                            <path d="M13.2247934,14.9021384 C13.2247934,15.9097781 12.2953825,16.7276597 11.1503374,16.7276597 C10.0039275,16.7276597 9.07588142,15.9097781 9.07588142,14.9021384 C9.07588142,13.8932977 10.0039275,13.0754162 11.1503374,13.0754162 C12.2953825,13.0754162 13.2247934,13.8932977 13.2247934,14.9021384" id="Fill-53" fill="#47BBD1"></path>
                            <path d="M20.686284,14.9021384 C20.686284,15.9097781 19.7568732,16.7276597 18.611828,16.7276597 C17.4654182,16.7276597 16.5360073,15.9097781 16.5360073,14.9021384 C16.5360073,13.8932977 17.4654182,13.0754162 18.611828,13.0754162 C19.7568732,13.0754162 20.686284,13.8932977 20.686284,14.9021384" id="Fill-55" fill="#47BBD1"></path>
                            <path d="M17.6901964,2.54023686 C17.6901964,3.81690075 16.5151262,4.85216347 15.0643718,4.85216347 C13.6136174,4.85216347 12.4371825,3.81690075 12.4371825,2.54023686 C12.4371825,1.26357298 13.6136174,0.228310259 15.0643718,0.228310259 C16.5151262,0.228310259 17.6901964,1.26357298 17.6901964,2.54023686" id="Fill-57" fill="#FFFFFF"></path>
                            <path d="M17.6901964,2.54023686 C17.6901964,3.81690075 16.5151262,4.85216347 15.0643718,4.85216347 C13.6136174,4.85216347 12.4371825,3.81690075 12.4371825,2.54023686 C12.4371825,1.26357298 13.6136174,0.228310259 15.0643718,0.228310259 C16.5151262,0.228310259 17.6901964,1.26357298 17.6901964,2.54023686 Z" id="Stroke-59" stroke="#47BBD1" stroke-width="0.872"></path>
                        </g>
                    </g>
                    <g id="编组-51" transform="translate(322.000000, 19.000000)">
                        <text id="智能摄像" font-family="PingFangSC-Regular, PingFang SC" font-size="14" font-weight="normal" letter-spacing="0.0310619642" fill="#3E3A39">
                            <tspan x="5.10672716" y="55.2380821">智能摄像</tspan>
                        </text>
                        <path d="M30.9701131,15.1044304 C32.2632803,15.1044304 33.3119748,16.2613341 33.3119748,17.6907648 C33.3119748,19.1175237 32.2632803,20.2757633 30.9701131,20.2757633 C29.6769459,20.2757633 28.6282514,19.1175237 28.6282514,17.6907648 C28.6282514,16.2613341 29.6769459,15.1044304 30.9701131,15.1044304 L30.9701131,15.1044304 Z M43.6172349,4.84325556 C39.3115759,1.7345778 23.9805978,1.49411282 18.3229913,4.76042873 C18.3229913,5.32418551 18.2722265,7.84639592 18.360397,8.71206983 C22.8130068,5.91198878 39.0256898,5.94939444 43.6172349,8.71206983 L43.6172349,4.84325556 Z M26.2863898,20.2757633 L26.5722759,20.2757633 C27.2175236,21.368543 28.9328404,22.1567338 30.9701131,22.1567338 C33.0060499,22.1567338 34.7227026,21.368543 35.3679503,20.2757633 L35.6538365,20.2757633 L35.6538365,14.1639452 L35.5603223,14.1639452 C35.1261494,12.0171273 33.2358275,10.4020042 30.9701131,10.4020042 C28.7030628,10.4020042 26.8140768,12.0171273 26.3799039,14.1639452 L26.2863898,14.1639452 L26.2863898,20.2757633 Z M43.6012039,13.2835762 C43.4275347,19.5076113 37.8447396,24.5079469 30.9701131,24.5079469 C24.1181972,24.5079469 18.5514331,19.5410092 18.3416942,13.3463643 C17.2475785,12.7852793 16.4179744,12.1213288 15.9797937,11.3424895 C15.8769282,9.66057056 15.9797937,4.91673097 15.9797937,3.8199435 C20.7035946,-1.23382873 41.0803294,-1.3126478 45.9590966,3.8199435 L45.9590966,11.3424895 C45.5115645,12.0892668 44.6859681,12.7345145 43.6012039,13.2835762 L43.6012039,13.2835762 Z" id="Fill-61" fill="#47BBD1"></path>
                    </g>
                    <g id="编组-50" transform="translate(456.000000, 19.000000)">
                        <text id="自助终端" font-family="PingFangSC-Regular, PingFang SC" font-size="14" font-weight="normal" letter-spacing="0.0310619642" fill="#3E3A39">
                            <tspan x="5.10672716" y="55.0333611">自助终端</tspan>
                        </text>
                        <path d="M23.6651517,5.31781729 L25.4381873,5.31781729 L25.4381873,3.5447817 L23.6651517,3.5447817 L23.6651517,5.31781729 Z M23.6651517,10.6343451 L25.4381873,10.6343451 L25.4381873,8.86130952 L23.6651517,8.86130952 L23.6651517,10.6343451 Z M28.156412,19.4956546 L28.156412,21.2686902 C28.156412,21.8592722 28.5097296,22.0952472 28.982969,22.0952472 L42.3342493,22.0952472 C42.9248314,22.0952472 43.1608063,21.7406401 43.1608063,21.2686902 L43.1608063,19.4956546 C43.1608063,18.9050726 42.8061992,18.6690977 42.3342493,18.6690977 L28.982969,18.6690977 C28.5097296,18.6690977 28.156412,19.0224153 28.156412,19.4956546 L28.156412,19.4956546 Z M25.4381873,19.4956546 C25.4381873,18.9050726 25.0835801,18.6690977 24.6116303,18.6690977 L22.8385947,18.6690977 C22.2480127,18.6690977 22.0107483,19.0224153 22.0107483,19.4956546 L22.0107483,21.2686902 C22.0107483,21.8592722 22.3653554,22.0952472 22.8385947,22.0952472 L24.6116303,22.0952472 C25.2022123,22.0952472 25.4381873,21.7406401 25.4381873,21.2686902 L25.4381873,19.4956546 Z M42.3342493,11.5795343 C42.9248314,11.5795343 43.1608063,11.2249271 43.1608063,10.7516878 L43.1608063,8.862599 C43.1608063,8.27201696 42.8061992,8.03475256 42.3342493,8.03475256 L22.8385947,8.03475256 C22.2480127,8.03475256 21.8934056,8.38935968 21.8934056,8.862599 L21.8934056,10.6343451 C21.8934056,11.1062949 22.2480127,11.4609021 22.8385947,11.4609021 L42.3342493,11.4609021 L42.3342493,11.5795343 Z M43.1608063,3.5447817 C43.1608063,2.95419967 42.8061992,2.59959255 42.2156171,2.59959255 L22.8385947,2.59959255 C22.2480127,2.71822475 21.8934056,3.07283186 21.8934056,3.5447817 L21.8934056,5.31781729 C21.8934056,5.90839933 22.2480127,6.26171697 22.8385947,6.26171697 L42.3342493,6.26171697 C42.9248314,6.26171697 43.2794385,5.90839933 43.2794385,5.31781729 L43.1608063,3.5447817 Z M46.705588,15.9508729 L46.705588,23.0404363 C46.705588,23.9856255 45.879031,24.8134719 44.9338419,24.8134719 L20.1216594,24.8134719 C19.1764703,24.8134719 18.3486239,23.9856255 18.3486239,23.0404363 L18.3486239,15.9508729 L38.6708354,15.9508729 L38.6708354,14.1791268 L18.3486239,14.1791268 L18.3486239,1.77174611 C18.3486239,0.827846436 19.1764703,-1.95399252e-14 20.1216594,-1.95399252e-14 L44.9338419,-1.95399252e-14 C45.879031,-1.95399252e-14 46.705588,0.827846436 46.705588,1.77174611 L46.705588,14.1791268 L40.5625032,14.1791268 L40.5625032,15.9508729 L46.705588,15.9508729 Z" id="Fill-63" fill="#47BBD1"></path>
                    </g>
                    <g id="编组-48" transform="translate(724.000000, 18.000000)">
                        <text id="多媒体交互" font-family="PingFangSC-Regular, PingFang SC" font-size="14" font-weight="normal" letter-spacing="0.0310619642" fill="#3E3A39">
                            <tspan x="6.02287795" y="57.5354462">多媒体交互</tspan>
                        </text>
                        <g id="编组" transform="translate(26.688907, 0.000000)" fill="#47BBD1">
                            <path d="M11.1525214,27.9987213 L11.1525214,13.1571026 L28.007201,13.1571026 L28.0266697,27.9987213 L11.1525214,27.9987213 Z M2.08401333,27.9987213 L2.08401333,2.9347511 L9.20046244,11.9240866 L9.20046244,27.9987213 L2.08401333,27.9987213 Z M20.4377808,2.31824311 L28.007201,11.4737113 L28.007201,11.5061591 L11.1525214,11.5061591 L11.1525214,11.4062199 L3.95689972,2.35198881 L20.4377808,2.31824311 Z M29.95926,10.9571425 L21.4631309,0.667299599 L0.309768227,0.7010453 L0.368174247,0.78411164 L0.112485669,0.78411164 L0.112485669,29.6665377 L29.9994953,29.6665377 L29.95926,10.9571425 Z" id="Fill-65"></path>
                            <path d="M16.2390369,22.0947812 L23.9070984,22.0947812 L23.9070984,20.9110858 L16.2390369,20.9110858 L16.2390369,22.0947812 Z M16.2390369,20.0946995 L23.9070984,20.0946995 L23.9070984,18.9110041 L16.2390369,18.9110041 L16.2390369,20.0946995 Z M24.4587108,9.82172944 L18.9386929,3.56968944 L8.11670629,3.56968944 L13.6367242,9.82172944 L24.4587108,9.82172944 Z" id="Fill-67"></path>
                        </g>
                    </g>
                    <g id="编组-49" transform="translate(590.000000, 19.000000)">
                        <text id="数字标牌" font-family="PingFangSC-Regular, PingFang SC" font-size="14" font-weight="normal" letter-spacing="0.0310619642" fill="#3E3A39">
                            <tspan x="5.10672716" y="54.1993328">数字标牌</tspan>
                        </text>
                        <g id="编组" transform="translate(17.514595, 0.000000)" fill="#47BBD1">
                            <path d="M2.51170848,20.6237249 L27.2465516,20.6237249 L27.2465516,3.03252711 L2.51170848,3.03252711 L2.51170848,20.6237249 Z M29.1947135,22.9864631 L29.2143453,19.5370501 L29.1889395,19.5370501 L29.1889395,4.11804709 L29.1947135,4.11804709 L29.2143453,0.669788927 L0.549688843,0.669788927 L0.549688843,4.11804709 L0.570475396,4.11804709 L0.570475396,19.5370501 L0.549688843,19.5370501 L0.549688843,22.9864631 L29.1947135,22.9864631 Z" id="Fill-69"></path>
                            <polygon id="Fill-71" points="6.47616604 18.0704433 9.68653365 18.0704433 9.68653365 11.451081 6.47616604 11.451081"></polygon>
                            <polygon id="Fill-72" points="19.8927311 18.0704433 23.1030987 18.0704433 23.1030987 5.80291268 19.8927311 5.80291268"></polygon>
                            <polygon id="Fill-73" points="13.1151601 18.0704433 16.3255277 18.0704433 16.3255277 8.1021364 13.1151601 8.1021364"></polygon>
                        </g>
                    </g>
                    <g id="编组-53" transform="translate(40.000000, 18.000000)">
                        <text id="体感互动终端" font-family="PingFangSC-Regular, PingFang SC" font-size="14" font-weight="normal" letter-spacing="0.0310619642" fill="#3E3A39">
                            <tspan x="6.93902875" y="57">体感互动终端</tspan>
                        </text>
                        <g id="编组-19" transform="translate(34.000000, 0.000000)" fill="#47BBD1">
                            <path d="M5.02822739,14.4126 C5.02822739,13.414388 5.41052134,12.5247286 6.15387069,11.7625005 C6.40873333,11.5088178 6.40873333,10.8728412 6.15387069,10.6368572 C5.90018798,10.3819946 5.26421131,10.3819946 5.02822739,10.6368572 C4.03001541,11.6350692 3.52264998,13.033274 3.52264998,14.4126 C3.52264998,15.791926 4.03001541,17.171252 5.02822739,18.1883427 C5.15565871,18.315774 5.41052134,18.4420254 5.66420406,18.4420254 C5.91788677,18.4420254 6.04531809,18.315774 6.2990008,18.1883427 C6.40873333,17.8249275 6.40873333,17.3163821 6.15387069,17.0626994 C5.39164263,16.3004713 5.02822739,15.4285107 5.02822739,14.4126" id="Fill-74"></path>
                            <path d="M1.63418865,14.4304168 C1.63418865,12.5425454 2.39641672,10.654674 3.77574273,9.40277932 C4.03060537,9.14791669 4.03060537,8.51311994 3.77574273,8.27713602 C3.52206002,8.02227339 2.88726327,8.02227339 2.65009943,8.27713602 C1.0170907,9.91014475 3.41060513e-13,12.1791302 3.41060513e-13,14.5578481 C3.41060513e-13,16.9542648 0.889659381,19.0769402 2.65009943,20.8385601 C2.77753075,20.9659914 3.03239338,21.0922428 3.2860761,21.0922428 C3.53975881,21.0922428 3.66719013,20.9659914 3.92087284,20.8385601 C4.17573548,20.5836975 4.17573548,19.9489007 3.92087284,19.7129168 C2.37871792,18.0787282 1.63418865,16.3182881 1.63418865,14.4304168" id="Fill-76"></path>
                            <path d="M24.5061042,10.655028 C24.2524215,10.4001654 23.6164448,10.4001654 23.3804609,10.655028 C23.1267782,10.9087107 23.1267782,11.5435075 23.3804609,11.7806713 C24.142689,12.5428994 24.5061042,13.41368 24.5061042,14.4307707 C24.5061042,15.4289827 24.1249902,16.3186421 23.3804609,17.0808702 C23.1078995,17.3168541 23.1078995,17.8253994 23.2353308,18.2065135 C23.4901934,18.3327649 23.6164448,18.4601962 23.8701276,18.4601962 C24.1249902,18.4601962 24.3786729,18.3327649 24.5061042,18.2065135 C25.5043162,17.2083015 26.0128616,15.8100967 26.0128616,14.4307707 C26.0128616,13.0514447 25.5043162,11.6709388 24.5061042,10.655028" id="Fill-78"></path>
                            <path d="M26.902285,8.27678204 C26.6486022,8.02309933 26.0126256,8.02309933 25.7766417,8.27678204 C25.5229589,8.53046476 25.5229589,9.16644143 25.7766417,9.40242535 C27.1559677,10.6555 27.9181957,12.5421914 27.9181957,14.4300628 C27.9181957,16.3179341 27.1382689,18.0795541 25.6315115,19.7125628 C25.3778288,19.9674255 25.3778288,20.6022222 25.6315115,20.8382061 C25.8863742,20.9656375 26.0126256,21.0918889 26.2663083,21.0918889 C26.5211709,21.0918889 26.7748536,20.9656375 26.902285,20.8382061 C28.662725,19.0777661 29.5523844,16.9350321 29.5523844,14.5574941 C29.5523844,12.1610774 28.5541724,9.9109707 26.902285,8.27678204" id="Fill-80"></path>
                            <path d="M16.555452,7.33308235 L14.9755396,7.33308235 L13.2150996,7.33308235 C11.1278218,7.33308235 9.45705562,8.83983968 9.45705562,10.7454098 L9.45705562,17.8426263 C9.45705562,19.4225386 10.6192764,20.7652871 12.2168876,21.1829787 L12.2168876,28.6070328 C12.2168876,28.9338705 12.4705703,29.1875532 12.7254329,29.1875532 L17.0639973,29.1875532 C17.31768,29.1875532 17.5713627,28.9338705 17.5713627,28.6070328 L17.5713627,21.0921248 C19.1512751,20.6756132 20.3311947,19.3316848 20.3311947,17.8426263 L20.3311947,10.7454098 C20.3134959,8.91181478 18.6427297,7.33308235 16.555452,7.33308235" id="Fill-82"></path>
                            <path d="M18.6428477,3.66601021 C18.6428477,1.66958624 16.9732615,4.26325641e-14 14.9756576,4.26325641e-14 C12.9792336,4.26325641e-14 11.3096474,1.66958624 11.3096474,3.66601021 C11.3096474,5.66243418 12.9792336,7.33320034 14.9756576,7.33320034 C17.0452366,7.33320034 18.6428477,5.66243418 18.6428477,3.66601021" id="Fill-84"></path>
                        </g>
                    </g>
                    <text id="......" font-family="LucidaGrande, Lucida Grande" font-size="11.2678" font-weight="normal" letter-spacing="0.025" fill="#040000">
                        <tspan x="1007" y="54">......</tspan>
                    </text>
                </g>
                <g id="编组-22">
                    <g id="编组-17">
                        <polygon id="Stroke-122" stroke="#007AFF" points="0 144.950126 294.472362 144.950126 294.472362 0 0 0"></polygon>
                        <text id="网点规划设计" font-family="PingFangSC-Medium, PingFang SC" font-size="15.0238" font-weight="400" letter-spacing="0.025" fill="#4B96E6">
                            <tspan x="102.799972" y="111">网点规划设计</tspan>
                        </text>
                        <g id="编组" transform="translate(128.000000, 38.000000)">
                            <path d="M13.0671991,4.81814613 C6.02161615,7.3274719 0.975617984,14.0536463 0.975617984,21.9622886 C0.975617984,23.0835 1.08172287,24.1784586 1.27643079,25.2438829" id="Stroke-124" stroke="#2258A4" stroke-width="1.049" stroke-linecap="round" stroke-linejoin="round"></path>
                            <path d="M37.0686704,25.2442111 C37.2622845,24.1787868 37.3694832,23.0827343 37.3694832,21.9626168 C37.3694832,14.0539745 32.3245789,7.32780006 25.2779021,4.81847429" id="Stroke-126" stroke="#2258A4" stroke-width="1.049" stroke-linecap="round" stroke-linejoin="round"></path>
                            <path d="M7.38369655,35.8180548 C10.559186,38.5231824 14.6743052,40.1585102 19.1722771,40.1585102 C23.6713429,40.1585102 27.7853683,38.5231824 30.9619516,35.8180548" id="Stroke-128" stroke="#2258A4" stroke-width="1.049" stroke-linecap="round" stroke-linejoin="round"></path>
                            <polygon id="Fill-130" fill="#FFFFFF" points="19.2624116 6.04075878 5.34517018 30.1462566 33.179653 30.1462566"></polygon>
                            <polygon id="Stroke-132" stroke="#2258A4" stroke-width="1.049" stroke-linecap="round" stroke-linejoin="round" points="19.2624116 6.04075878 5.34517018 30.1462566 33.179653 30.1462566"></polygon>
                            <path d="M22.8239259,4.24397652 C22.8239259,6.22715334 21.2159447,7.83513454 19.2327679,7.83513454 C17.2484972,7.83513454 15.6416098,6.22715334 15.6416098,4.24397652 C15.6416098,2.2607997 17.2484972,0.651724627 19.2327679,0.651724627 C21.2159447,0.651724627 22.8239259,2.2607997 22.8239259,4.24397652" id="Fill-134" fill="#FFFFFF"></path>
                            <path d="M22.8239259,4.24397652 C22.8239259,6.22715334 21.2159447,7.83513454 19.2327679,7.83513454 C17.2484972,7.83513454 15.6416098,6.22715334 15.6416098,4.24397652 C15.6416098,2.2607997 17.2484972,0.651724627 19.2327679,0.651724627 C21.2159447,0.651724627 22.8239259,2.2607997 22.8239259,4.24397652 Z" id="Stroke-136" stroke="#47BBD1" stroke-width="1.049" stroke-linecap="round" stroke-linejoin="round"></path>
                            <path d="M2.00253823,27.6590269 C3.71990591,26.6668916 5.91748022,27.2553908 6.9085217,28.9738524 C7.90065704,30.69122 7.3121578,32.8877005 5.59369625,33.8798358 C3.87632857,34.8708773 1.67984812,34.2823781 0.687712778,32.5650104 C-0.303328699,30.8476427 0.285170544,28.6500684 2.00253823,27.6590269" id="Fill-138" fill="#FFFFFF"></path>
                            <path d="M2.00253823,27.6590269 C3.71990591,26.6668916 5.91748022,27.2553908 6.9085217,28.9738524 C7.90065704,30.69122 7.3121578,32.8877005 5.59369625,33.8798358 C3.87632857,34.8708773 1.67984812,34.2823781 0.687712778,32.5650104 C-0.303328699,30.8476427 0.285170544,28.6500684 2.00253823,27.6590269 Z" id="Stroke-140" stroke="#47BBD1" stroke-width="1.049" stroke-linecap="round" stroke-linejoin="round"></path>
                            <path d="M32.691133,33.9828779 C30.9737653,32.9918364 30.3852661,30.7942621 31.3763075,29.0768944 C32.3684429,27.3595267 34.5649233,26.7710275 36.282291,27.762069 C38.0007526,28.7542043 38.5892518,30.9506848 37.5971165,32.6680524 C36.606075,34.386514 34.4085007,34.9750132 32.691133,33.9828779" id="Fill-142" fill="#FFFFFF"></path>
                            <path d="M32.691133,33.9828779 C30.9737653,32.9918364 30.3852661,30.7942621 31.3763075,29.0768944 C32.3684429,27.3595267 34.5649233,26.7710275 36.282291,27.762069 C38.0007526,28.7542043 38.5892518,30.9506848 37.5971165,32.6680524 C36.606075,34.386514 34.4085007,34.9750132 32.691133,33.9828779 Z" id="Stroke-144" stroke="#47BBD1" stroke-width="1.049" stroke-linecap="round" stroke-linejoin="round"></path>
                        </g>
                    </g>
                    <g id="编组-16" transform="translate(308.542714, 0.000000)">
                        <polygon id="Stroke-148" stroke="#007AFF" points="0 144.723618 287.437186 144.723618 287.437186 0 0 0"></polygon>
                        <text id="智能硬件终端" font-family="PingFangSC-Medium, PingFang SC" font-size="15.0238" font-weight="400" letter-spacing="0.025" fill="#4B96E6">
                            <tspan x="98.7480724" y="111">智能硬件终端</tspan>
                        </text>
                        <g id="编组" transform="translate(124.000000, 38.000000)">
                            <path d="M22.81875,40.1544693 L16.1875,40.1544693 C8.95,40.1544693 3.0275,34.3825796 3.0275,27.3291305 L3.0275,10.0475712 C3.0275,4.75322065 7.47125,0.423694229 12.9025,0.423694229 L26.10375,0.423694229 C31.535,0.423694229 35.97875,4.75322065 35.97875,10.0475712 L35.97875,27.3291305 C35.97875,34.3825796 30.0575,40.1544693 22.81875,40.1544693" id="Fill-150" fill="#FFFFFF"></path>
                            <path d="M22.81875,40.1544693 L16.1875,40.1544693 C8.95,40.1544693 3.0275,34.3825796 3.0275,27.3291305 L3.0275,10.0475712 C3.0275,4.75322065 7.47125,0.423694229 12.9025,0.423694229 L26.10375,0.423694229 C31.535,0.423694229 35.97875,4.75322065 35.97875,10.0475712 L35.97875,27.3291305 C35.97875,34.3825796 30.0575,40.1544693 22.81875,40.1544693 Z" id="Stroke-152" stroke="#2258A4" stroke-width="1.049" stroke-linecap="round" stroke-linejoin="round"></path>
                            <path d="M0.20825,10.4896604 L0.20825,21.9566926 L14.83825,24.7159434 C15.70825,24.880402 16.5895,24.4881377 17.03325,23.7389371 L17.70325,22.6084361 C18.50325,21.2586569 20.50325,21.2586569 21.30325,22.6084361 L21.97325,23.7389371 C22.41575,24.4881377 23.297,24.880402 24.167,24.7159434 L38.79825,21.9566926 L38.79825,10.4896604 C38.79825,9.61985686 38.0745,8.91573017 37.18325,8.91573017 L1.82325,8.91573017 C0.932,8.91573017 0.20825,9.61985686 0.20825,10.4896604" id="Fill-154" fill="#FFFFFF"></path>
                            <path d="M0.20825,10.4896604 L0.20825,21.9566926 L14.83825,24.7159434 C15.70825,24.880402 16.5895,24.4881377 17.03325,23.7389371 L17.70325,22.6084361 C18.50325,21.2586569 20.50325,21.2586569 21.30325,22.6084361 L21.97325,23.7389371 C22.41575,24.4881377 23.297,24.880402 24.167,24.7159434 L38.79825,21.9566926 L38.79825,10.4896604 C38.79825,9.61985686 38.0745,8.91573017 37.18325,8.91573017 L1.82325,8.91573017 C0.932,8.91573017 0.20825,9.61985686 0.20825,10.4896604 Z" id="Stroke-156" stroke="#47BBD1" stroke-width="1.049" stroke-linecap="round" stroke-linejoin="round"></path>
                            <path d="M23.613375,32.4205269 C23.613375,32.4205269 21.872125,34.3915943 19.723375,34.3915943 C17.574625,34.3915943 15.833375,32.4205269 15.833375,32.4205269 C15.833375,32.4205269 17.574625,30.4494594 19.723375,30.4494594 C21.872125,30.4494594 23.613375,32.4205269 23.613375,32.4205269" id="Fill-158" fill="#FFFFFF"></path>
                            <path d="M23.613375,32.4205269 C23.613375,32.4205269 21.872125,34.3915943 19.723375,34.3915943 C17.574625,34.3915943 15.833375,32.4205269 15.833375,32.4205269 C15.833375,32.4205269 17.574625,30.4494594 19.723375,30.4494594 C21.872125,30.4494594 23.613375,32.4205269 23.613375,32.4205269 Z" id="Stroke-160" stroke="#2258A4" stroke-width="1.049" stroke-linecap="round" stroke-linejoin="round"></path>
                        </g>
                    </g>
                    <g id="编组-15" transform="translate(610.380235, 0.000000)">
                        <polygon id="Stroke-164" stroke="#007AFF" points="0 144.950126 288.442211 144.950126 288.442211 0 0 0"></polygon>
                        <text id="软件系统开发" font-family="PingFangSC-Medium, PingFang SC" font-size="15.0238" font-weight="400" letter-spacing="0.025" fill="#4B96E6">
                            <tspan x="98.799972" y="111">软件系统开发</tspan>
                        </text>
                        <g id="编组" transform="translate(123.000000, 38.000000)">
                            <path d="M33.9240648,4.90396427 C33.3299832,4.90396427 32.8475712,4.42043551 32.8475712,3.82635399 C32.8475712,3.23227247 33.3299832,2.74986041 33.9240648,2.74986041 C34.5181463,2.74986041 35.0005583,3.23227247 35.0005583,3.82635399 C35.0005583,4.42043551 34.5181463,4.90396427 33.9240648,4.90396427" id="Fill-166" fill="#F1F1F2"></path>
                            <path d="M33.9240648,1.87124511 C32.8442211,1.87124511 31.9687326,2.74673367 31.9687326,3.82657733 C31.9687326,4.90642099 32.8442211,5.78190955 33.9240648,5.78190955 C35.0039084,5.78190955 35.879397,4.90642099 35.879397,3.82657733 C35.879397,2.74673367 35.0039084,1.87124511 33.9240648,1.87124511 M33.9240648,3.62892239 C34.0335008,3.62892239 34.1228364,3.71714126 34.1228364,3.82657733 C34.1228364,3.9360134 34.0335008,4.02534897 33.9240648,4.02534897 C33.8146287,4.02534897 33.7252931,3.9360134 33.7252931,3.82657733 C33.7252931,3.71714126 33.8146287,3.62892239 33.9240648,3.62892239" id="Fill-168" fill="#47BBD1"></path>
                            <path d="M39.7905081,15.6587381 C39.1964266,15.6587381 38.7140145,15.1752094 38.7140145,14.5822446 C38.7140145,13.988163 39.1964266,13.5046343 39.7905081,13.5046343 C40.3845896,13.5046343 40.8670017,13.988163 40.8670017,14.5822446 C40.8670017,15.1752094 40.3845896,15.6587381 39.7905081,15.6587381" id="Fill-170" fill="#F1F1F2"></path>
                            <path d="M39.7905081,12.6264657 C38.7106644,12.6264657 37.8351759,13.5019542 37.8351759,14.5817979 C37.8351759,15.6616415 38.7106644,16.5371301 39.7905081,16.5371301 C40.8703518,16.5371301 41.7458403,15.6616415 41.7458403,14.5817979 C41.7458403,13.5019542 40.8703518,12.6264657 39.7905081,12.6264657 M39.7905081,14.3830262 C39.8999442,14.3830262 39.988163,14.4723618 39.988163,14.5817979 C39.988163,14.6912339 39.8999442,14.7805695 39.7905081,14.7805695 C39.681072,14.7805695 39.5917365,14.6912339 39.5917365,14.5817979 C39.5917365,14.4723618 39.681072,14.3830262 39.7905081,14.3830262" id="Fill-172" fill="#47BBD1"></path>
                            <path d="M39.7905081,21.5251815 C39.1964266,21.5251815 38.7140145,21.0416527 38.7140145,20.4486879 C38.7140145,19.8546064 39.1964266,19.3710776 39.7905081,19.3710776 C40.3845896,19.3710776 40.8670017,19.8546064 40.8670017,20.4486879 C40.8670017,21.0416527 40.3845896,21.5251815 39.7905081,21.5251815" id="Fill-174" fill="#F1F1F2"></path>
                            <path d="M39.7905081,18.4924623 C38.7106644,18.4924623 37.8351759,19.3679509 37.8351759,20.4477945 C37.8351759,21.5276382 38.7106644,22.4031267 39.7905081,22.4031267 C40.8703518,22.4031267 41.7458403,21.5276382 41.7458403,20.4477945 C41.7458403,19.3679509 40.8703518,18.4924623 39.7905081,18.4924623 M39.7905081,20.2501396 C39.8999442,20.2501396 39.988163,20.3383585 39.988163,20.4477945 C39.988163,20.5572306 39.8999442,20.6465662 39.7905081,20.6465662 C39.681072,20.6465662 39.5917365,20.5572306 39.5917365,20.4477945 C39.5917365,20.3383585 39.681072,20.2501396 39.7905081,20.2501396" id="Fill-176" fill="#47BBD1"></path>
                            <path d="M34.8084869,16.5371301 C34.8084869,7.49190396 27.8626466,0.159687326 19.2931323,0.159687326 C19.1278615,0.159687326 18.961474,0.163037409 18.7962032,0.168620882 C13.1725293,0.355108878 8.26018984,4.0413177 6.28587381,9.30988275 L3.99441653,15.4383026 C3.85147962,15.8190955 3.65382468,16.1775544 3.40815187,16.5025126 L0.142936907,20.8174204 C-0.13400335,21.1836963 0.127303183,21.7085427 0.586264657,21.7085427 L4.56951424,21.7085427 L4.62088219,28.1407035 C4.63204913,29.5108878 5.74539363,30.6152987 7.11557789,30.6152987 L9.22054718,30.6152987 C10.5159129,30.6152987 11.7844779,30.9335567 12.9558906,31.4874372 C12.9659408,31.491904 12.9771078,31.4963707 12.9882747,31.5019542 C13.9720826,31.9642658 14.614182,32.9369068 14.614182,34.0234506 L14.614182,39.268565 L18.2802903,39.268565 L22.9246231,39.268565 L27.0798437,39.268565 L27.0798437,30.7001675 C31.7007259,27.86488 34.8084869,22.5862647 34.8084869,16.5371301" id="Fill-178" fill="#FFFFFF"></path>
                            <path d="M34.8084869,16.5371301 C34.8084869,7.49190396 27.8626466,0.159687326 19.2931323,0.159687326 C19.1278615,0.159687326 18.961474,0.163037409 18.7962032,0.168620882 C13.1725293,0.355108878 8.26018984,4.0413177 6.28587381,9.30988275 L3.99441653,15.4383026 C3.85147962,15.8190955 3.65382468,16.1775544 3.40815187,16.5025126 L0.142936907,20.8174204 C-0.13400335,21.1836963 0.127303183,21.7085427 0.586264657,21.7085427 L4.56951424,21.7085427 L4.62088219,28.1407035 C4.63204913,29.5108878 5.74539363,30.6152987 7.11557789,30.6152987 L9.22054718,30.6152987 C10.5159129,30.6152987 11.7844779,30.9335567 12.9558906,31.4874372 C12.9659408,31.491904 12.9771078,31.4963707 12.9882747,31.5019542 C13.9720826,31.9642658 14.614182,32.9369068 14.614182,34.0234506 L14.614182,39.268565 L18.2802903,39.268565 L22.9246231,39.268565 L27.0798437,39.268565 L27.0798437,30.7001675 C31.7007259,27.86488 34.8084869,22.5862647 34.8084869,16.5371301 Z" id="Stroke-180" stroke="#2258A4" stroke-width="1.049" stroke-linecap="round" stroke-linejoin="round"></path>
                            <path d="M19.2936907,0.160245673 C19.1273032,0.160245673 18.9620324,0.162479062 18.7967616,0.168062535 C15.8911223,0.265214964 13.1764377,1.29815745 10.9575656,2.99776661 C11.1742044,13.8855388 20.2752652,22.6482412 31.4801787,22.6482412 C32.2428811,22.6482412 32.9955332,22.6046901 33.7370184,22.5242881 C34.4282524,20.6705751 34.8090452,18.6515913 34.8090452,16.5376884 C34.8090452,7.49246231 27.8620882,0.160245673 19.2936907,0.160245673" id="Fill-182" fill="#FFFFFF"></path>
                            <path d="M19.2936907,0.160245673 C19.1273032,0.160245673 18.9620324,0.162479062 18.7967616,0.168062535 C15.8911223,0.265214964 13.1764377,1.29815745 10.9575656,2.99776661 C11.1742044,13.8855388 20.2752652,22.6482412 31.4801787,22.6482412 C32.2428811,22.6482412 32.9955332,22.6046901 33.7370184,22.5242881 C34.4282524,20.6705751 34.8090452,18.6515913 34.8090452,16.5376884 C34.8090452,7.49246231 27.8620882,0.160245673 19.2936907,0.160245673 Z" id="Stroke-184" stroke="#47BBD1" stroke-width="1.049" stroke-linecap="round" stroke-linejoin="round"></path>
                            <polyline id="Stroke-186" stroke="#47BBD1" stroke-width="1.049" stroke-linecap="round" stroke-linejoin="round" points="24.1470687 10.9154662 24.1470687 3.826689 32.7020659 3.826689"></polyline>
                            <g transform="translate(25.683975, 10.050251)">
                                <polyline id="Fill-188" fill="#FFFFFF" points="0.174092686 0.865214964 6.52920156 0.865214964 10.1953099 4.53132328 13.6179788 4.53132328"></polyline>
                                <polyline id="Stroke-190" stroke="#47BBD1" stroke-width="1.049" stroke-linecap="round" stroke-linejoin="round" points="0.174092686 0.865214964 6.52920156 0.865214964 10.1953099 4.53132328 13.6179788 4.53132328"></polyline>
                            </g>
                            <polyline id="Stroke-191" stroke="#47BBD1" stroke-width="1.049" stroke-linecap="round" stroke-linejoin="round" points="24.0249023 11.0376326 31.3571189 20.3251815 39.1795645 20.3251815"></polyline>
                            <path d="M26.5914015,11.0376326 C26.5914015,12.454718 25.4423227,13.6037968 24.0252373,13.6037968 C22.6070352,13.6037968 21.4579564,12.454718 21.4579564,11.0376326 C21.4579564,9.61943049 22.6070352,8.47146845 24.0252373,8.47146845 C25.4423227,8.47146845 26.5914015,9.61943049 26.5914015,11.0376326" id="Fill-193" fill="#FFFFFF"></path>
                            <path d="M26.5914015,11.0376326 C26.5914015,12.454718 25.4423227,13.6037968 24.0252373,13.6037968 C22.6070352,13.6037968 21.4579564,12.454718 21.4579564,11.0376326 C21.4579564,9.61943049 22.6070352,8.47146845 24.0252373,8.47146845 C25.4423227,8.47146845 26.5914015,9.61943049 26.5914015,11.0376326 Z" id="Stroke-195" stroke="#2258A4" stroke-width="1.049" stroke-linecap="round" stroke-linejoin="round"></path>
                        </g>
                    </g>
                    <g id="编组-14" transform="translate(912.557789, 0.000000)">
                        <polygon id="Stroke-199" stroke="#007AFF" points="0 144.950126 287.437186 144.950126 287.437186 0 0 0"></polygon>
                        <text id="项目管理统筹" font-family="PingFangSC-Medium, PingFang SC" font-size="15.0238" font-weight="400" letter-spacing="0.025" fill="#4B96E6">
                            <tspan x="98.799972" y="111">项目管理统筹</tspan>
                        </text>
                        <g id="编组" transform="translate(124.000000, 43.000000)">
                            <polyline id="Stroke-201" stroke="#2258A4" stroke-width="1.049" stroke-linecap="round" stroke-linejoin="round" points="34.7495051 9.58318867 20.4744937 23.8582001 6.19948226 9.58318867"></polyline>
                            <polyline id="Stroke-203" stroke="#2258A4" stroke-width="1.049" stroke-linecap="round" stroke-linejoin="round" points="32.8621288 25.826222 20.4753464 13.4394396 8.08734582 25.826222"></polyline>
                            <path d="M13.3653723,6.56920968 C13.3653723,9.98385869 10.597594,12.751637 7.18294503,12.751637 C3.76829603,12.751637 1.00051774,9.98385869 1.00051774,6.56920968 C1.00051774,3.15456068 3.76829603,0.386782397 7.18294503,0.386782397 C10.597594,0.386782397 13.3653723,3.15456068 13.3653723,6.56920968" id="Fill-205" fill="#FFFFFF"></path>
                            <path d="M13.3653723,6.56920968 C13.3653723,9.98385869 10.597594,12.751637 7.18294503,12.751637 C3.76829603,12.751637 1.00051774,9.98385869 1.00051774,6.56920968 C1.00051774,3.15456068 3.76829603,0.386782397 7.18294503,0.386782397 C10.597594,0.386782397 13.3653723,3.15456068 13.3653723,6.56920968 Z" id="Stroke-207" stroke="#47BBD1" stroke-width="1.049" stroke-linecap="round" stroke-linejoin="round"></path>
                            <path d="M39.9501751,6.56920968 C39.9501751,9.98385869 37.1823968,12.751637 33.7677478,12.751637 C30.3530988,12.751637 27.5853205,9.98385869 27.5853205,6.56920968 C27.5853205,3.15456068 30.3530988,0.386782397 33.7677478,0.386782397 C37.1823968,0.386782397 39.9501751,3.15456068 39.9501751,6.56920968" id="Fill-209" fill="#FFFFFF"></path>
                            <path d="M39.9501751,6.56920968 C39.9501751,9.98385869 37.1823968,12.751637 33.7677478,12.751637 C30.3530988,12.751637 27.5853205,9.98385869 27.5853205,6.56920968 C27.5853205,3.15456068 30.3530988,0.386782397 33.7677478,0.386782397 C37.1823968,0.386782397 39.9501751,3.15456068 39.9501751,6.56920968 Z" id="Stroke-211" stroke="#2258A4" stroke-width="1.049" stroke-linecap="round" stroke-linejoin="round"></path>
                            <path d="M13.3653723,29.135252 C13.3653723,32.549901 10.597594,35.3176793 7.18294503,35.3176793 C3.76829603,35.3176793 1.00051774,32.549901 1.00051774,29.135252 C1.00051774,25.720603 3.76829603,22.9528247 7.18294503,22.9528247 C10.597594,22.9528247 13.3653723,25.720603 13.3653723,29.135252" id="Fill-213" fill="#FFFFFF"></path>
                            <path d="M13.3653723,29.135252 C13.3653723,32.549901 10.597594,35.3176793 7.18294503,35.3176793 C3.76829603,35.3176793 1.00051774,32.549901 1.00051774,29.135252 C1.00051774,25.720603 3.76829603,22.9528247 7.18294503,22.9528247 C10.597594,22.9528247 13.3653723,25.720603 13.3653723,29.135252 Z" id="Stroke-215" stroke="#2258A4" stroke-width="1.049" stroke-linecap="round" stroke-linejoin="round"></path>
                            <path d="M39.9501751,29.135252 C39.9501751,32.549901 37.1823968,35.3176793 33.7677478,35.3176793 C30.3530988,35.3176793 27.5853205,32.549901 27.5853205,29.135252 C27.5853205,25.720603 30.3530988,22.9528247 33.7677478,22.9528247 C37.1823968,22.9528247 39.9501751,25.720603 39.9501751,29.135252" id="Fill-217" fill="#FFFFFF"></path>
                            <path d="M39.9501751,29.135252 C39.9501751,32.549901 37.1823968,35.3176793 33.7677478,35.3176793 C30.3530988,35.3176793 27.5853205,32.549901 27.5853205,29.135252 C27.5853205,25.720603 30.3530988,22.9528247 33.7677478,22.9528247 C37.1823968,22.9528247 39.9501751,25.720603 39.9501751,29.135252 Z" id="Stroke-219" stroke="#47BBD1" stroke-width="1.049" stroke-linecap="round" stroke-linejoin="round"></path>
                            <path d="M20.4973961,15.1936653 C19.6617025,15.1936653 18.98194,14.5139028 18.98194,13.6794274 C18.98194,12.8437338 19.6617025,12.1639714 20.4973961,12.1639714 C21.3330897,12.1639714 22.0116339,12.8437338 22.0116339,13.6794274 C22.0116339,14.5139028 21.3330897,15.1936653 20.4973961,15.1936653" id="Fill-221" fill="#F1F1F2"></path>
                            <path d="M20.4973961,11.2058474 C19.1317801,11.2058474 18.0244252,12.3132024 18.0244252,13.6788183 C18.0244252,15.0444343 19.1317801,16.1517892 20.4973961,16.1517892 C21.863012,16.1517892 22.970367,15.0444343 22.970367,13.6788183 C22.970367,12.3132024 21.863012,11.2058474 20.4973961,11.2058474 M20.4973961,13.1233135 C20.8031674,13.1233135 21.0541191,13.3718288 21.0541191,13.6788183 C21.0541191,13.9858078 20.8031674,14.2355413 20.4973961,14.2355413 C20.1904066,14.2355413 19.9406731,13.9858078 19.9406731,13.6788183 C19.9406731,13.3718288 20.1904066,13.1233135 20.4973961,13.1233135" id="Fill-223" fill="#47BBD1"></path>
                            <path d="M20.4973961,25.3949749 C19.6617025,25.3949749 18.98194,24.7152124 18.98194,23.880737 C18.98194,23.0450434 19.6617025,22.365281 20.4973961,22.365281 C21.3330897,22.365281 22.0116339,23.0450434 22.0116339,23.880737 C22.0116339,24.7152124 21.3330897,25.3949749 20.4973961,25.3949749" id="Fill-225" fill="#F1F1F2"></path>
                            <path d="M20.4973961,21.4072788 C19.1317801,21.4072788 18.0244252,22.5146338 18.0244252,23.8802497 C18.0244252,25.2458657 19.1317801,26.3532206 20.4973961,26.3532206 C21.863012,26.3532206 22.970367,25.2458657 22.970367,23.8802497 C22.970367,22.5146338 21.863012,21.4072788 20.4973961,21.4072788 M20.4973961,23.3247449 C20.8031674,23.3247449 21.0541191,23.5732602 21.0541191,23.8802497 C21.0541191,24.1872392 20.8031674,24.4357545 20.4973961,24.4357545 C20.1904066,24.4357545 19.9406731,24.1872392 19.9406731,23.8802497 C19.9406731,23.5732602 20.1904066,23.3247449 20.4973961,23.3247449" id="Fill-227" fill="#47BBD1"></path>
                        </g>
                    </g>
                </g>
            </g>
        </g>
    </g>
</svg>