<?xml version="1.0" encoding="UTF-8"?>
<svg width="40px" height="40px" viewBox="0 0 40 40" version="1.1" xmlns="http://www.w3.org/2000/svg" xmlns:xlink="http://www.w3.org/1999/xlink">
    <title>icon_lianxiwomen</title>
    <g id="页面-1" stroke="none" stroke-width="1" fill="none" fill-rule="evenodd">
        <g id="浮标" transform="translate(-656.000000, -1015.000000)" fill="#0272DF" fill-rule="nonzero">
            <g id="lianxiwomen" transform="translate(617.000000, 978.000000)">
                <g id="icon_lianxiwomen" transform="translate(39.000000, 37.000000)">
                    <path d="M1.65201186e-12,9.15741037 C1.65201186e-12,5.10397165 7.86707426,-2.30073223 11.2446472,0.695949346 C13.4656645,2.66650093 14.1753653,3.38851673 15.8097559,5.4781247 L15.8097559,5.4781247 L16.4707551,6.3309432 C18.7598514,9.30396611 18.9800772,11.417045 17.0766208,13.4596943 C16.8183234,13.73688 16.5475981,14.0033314 16.1611165,14.3680996 L16.1611165,14.3680996 L15.4640565,15.0283292 C15.0405677,15.4333024 14.9541157,15.5319851 14.7813283,15.7500377 L14.7813283,15.7500377 L14.6914962,15.8698522 L14.7884977,16.0236275 C15.4503748,17.0311263 17.0970488,18.9503017 18.9390595,20.8419954 L18.9390595,20.8419954 L19.4031748,21.3138028 L19.9114017,21.819322 C21.0344841,22.9234797 22.0772181,23.8617992 22.8922336,24.4950513 C23.1655208,24.7073904 23.4069236,24.8803105 23.6077017,25.0093771 L23.6077017,25.0093771 L23.6605871,25.0419453 L23.7381541,24.9624812 L23.960162,24.7252844 L25.4118886,23.1190814 L25.732819,22.7725117 C26.3373869,22.1272904 26.8238353,21.6559511 27.2658626,21.3069293 C28.2725936,20.5120211 29.1485375,20.1910648 30.0581294,21.0056762 L30.0581294,21.0056762 L29.9942235,20.9517127 L30.3559058,21.2236685 C31.6888337,22.2328519 33.307144,23.5138691 34.7237785,24.7096264 L34.7237785,24.7096264 L35.4078818,25.2938408 C38.1054206,27.6215242 39.3326231,28.9521969 39.3326231,30.1794549 C39.3326231,31.7630252 38.4054767,33.3124871 36.4917254,35.7659779 L36.4917254,35.7659779 L36.0661263,36.3098664 L35.7524158,36.6936831 C35.6036829,36.8705341 35.4569823,37.0370922 35.3058038,37.1996087 C33.4786735,39.1637681 31.3212223,40.1443138 28.5346959,39.6770784 C24.0705713,38.9285489 16.0871728,32.7177366 11.9247713,28.5297678 C7.76236979,24.341799 5.8478634,21.6661313 3.79808133,18.5546495 C1.74829925,15.4431676 1.65201186e-12,11.924542 1.65201186e-12,9.15741037 Z M9.45800434,2.80443341 C9.05142572,2.44370496 7.57553911,3.0440702 5.8296563,4.6873425 C4.9567001,5.50899257 4.13830983,6.48029753 3.54585779,7.38939199 C3.01375772,8.20587871 2.74372648,8.89002461 2.72727273,9.15741037 C2.54486269,12.1217091 5.59882664,16.4837374 6.08268229,17.1074013 C6.56653794,17.7310652 8.86573996,21.5429227 14.1814062,26.8887282 C19.4970724,32.2345338 25.3111058,36.3086402 28.9757207,36.9231106 C30.7624774,37.2227079 32.0731996,36.6269943 33.3303767,35.2755327 C33.5195985,35.0721199 33.6322892,34.9449354 33.824279,34.7063612 L33.824279,34.7063612 L34.7256246,33.5494949 C35.8344543,32.0830511 36.4802484,30.9957254 36.5889322,30.3579993 L36.5889322,30.3579993 L36.5547069,30.3058078 C36.4541312,30.1605882 36.3083487,29.9805843 36.1215418,29.771939 L36.1215418,29.771939 L35.8779495,29.50821 C35.3910805,28.9955065 34.7347084,28.3784477 33.9406711,27.6813528 L33.9406711,27.6813528 L33.3912675,27.2050326 C32.0627699,26.0666844 30.4793441,24.8013738 29.1315071,23.7698678 L29.1315071,23.7698678 L28.8669508,23.5684569 L28.7087366,23.7035339 C28.4316538,23.9478056 28.0953112,24.2833129 27.6884025,24.7178543 L27.6884025,24.7178543 L27.2875097,25.1525907 L26.1442362,26.420632 L25.7908889,26.8049872 C25.3987069,27.2234136 25.1119402,27.4998761 24.852135,27.6941423 C23.4992347,28.705757 21.7415104,27.4745676 18.4406406,24.2448403 L18.4406406,24.2448403 L17.7268406,23.5397502 C15.0732712,20.8969777 12.6910752,18.1034249 12.0666678,16.7673648 C11.6521683,15.7894311 11.9555854,14.8850653 12.6629336,13.9924129 C12.8708609,13.7300148 12.97985,13.5976947 13.2561636,13.3237978 L13.2561636,13.3237978 L14.7031135,11.9417907 C14.7792875,11.8671511 14.8493251,11.797246 14.9152649,11.7299622 L14.9152649,11.7299622 L15.10283,11.5338609 C15.925785,10.6507262 15.8633245,10.0514149 14.3284873,8.05800545 L14.3284873,8.05800545 L13.680249,7.22124405 C12.4216725,5.61091117 11.7881104,4.91305935 10.4270063,3.67316702 L10.4270063,3.67316702 Z M21.9534338,3.85064769 C25.8817155,4.71366152 28.995706,6.2386626 31.270328,8.4457371 C33.5818522,10.6886181 35.0157438,13.7540851 35.581834,17.5908743 C35.6942466,18.3527735 35.1816893,19.0641569 34.437005,19.1797936 C33.6923208,19.2954303 32.9975065,18.771531 32.8850939,18.0096317 C32.405239,14.7573195 31.2378896,12.2616838 29.3928767,10.4714606 C27.5109615,8.64543091 24.8479881,7.34130451 21.3788793,6.57916751 C20.6426602,6.41742574 20.1744551,5.67550816 20.3331139,4.92204821 C20.4917728,4.16858827 21.2172147,3.68890592 21.9534338,3.85064769 Z M21.9817,8.50523928 L22.1126241,8.5175478 C24.1010837,8.80244717 25.9464198,9.68646704 27.6284929,11.1456347 C29.3839265,12.6684413 30.4210023,14.6767179 30.7154572,17.1029388 C30.8082707,17.8676941 30.2776441,18.5646408 29.5302696,18.6596127 C28.7828951,18.7545847 28.1017881,18.2116179 28.0089746,17.4468626 C27.7977477,15.7064168 27.0911366,14.3380784 25.8648783,13.2743217 C24.5652595,12.146926 23.1951599,11.4905712 21.7344403,11.2812846 C20.9886006,11.1744233 20.4686373,10.4691116 20.5730699,9.70592679 C20.6713594,8.98763518 21.2877161,8.47408107 21.9817,8.50523928 Z" id="形状结合"></path>
                </g>
            </g>
        </g>
    </g>
</svg>