<?xml version="1.0" encoding="UTF-8"?>
<svg width="19px" height="18px" viewBox="0 0 19 18" version="1.1" xmlns="http://www.w3.org/2000/svg" xmlns:xlink="http://www.w3.org/1999/xlink">
    <title>zixun-3</title>
    <g id="页面-1" stroke="none" stroke-width="1" fill="none" fill-rule="evenodd">
        <g id="城市光空间解决方案-智能LED玻璃" transform="translate(-1881.000000, -829.000000)" fill="#0272DF" fill-rule="nonzero">
            <g id="zixun-3" transform="translate(1881.000000, 829.000000)">
                <path d="M9.29591641,0.00448619632 C12.8638671,0.00448619632 15.9925566,2.42042226 16.8860297,5.89437694 C17.8659087,6.18984088 18.57199,7.09479294 18.57199,8.17626534 L18.57199,10.8265721 C18.57199,12.0910236 17.6067659,13.114169 16.3670749,13.2052511 C16.3663335,13.2066694 16.3648781,13.2092634 16.3634011,13.2118482 C15.72432,14.3195887 14.0578746,16.2081261 11.7208007,16.6974078 C11.533988,17.4370405 10.8440708,17.9824003 10.0026649,17.9824003 L8.54499617,17.9824003 C7.57321702,17.9824003 6.778125,17.1873083 6.778125,16.2155291 L6.778125,16.1271856 C6.778125,15.1554064 7.57321702,14.3603144 8.54499617,14.3603144 L10.0026649,14.3603144 C10.6946657,14.3603144 11.2970716,14.7634911 11.5865821,15.3465439 C13.1063232,14.9689516 14.2927088,13.7574203 14.9126063,12.923566 C14.1695497,12.5226892 13.6689225,11.737209 13.6689225,10.8265721 L13.6689225,8.17626534 C13.6689225,7.0569123 14.4253338,6.12666208 15.4589527,5.86471844 C14.5952196,3.19345678 12.1275325,1.37381135 9.29591641,1.37381135 C6.46430028,1.37381135 3.99661324,3.19345678 3.13090738,5.86551944 C4.16649898,6.12666208 4.92291028,7.0569123 4.92291028,8.17626534 L4.92291028,10.8265721 C4.96708206,12.1517255 3.90695936,13.2118482 2.58180598,13.2118482 L2.40511887,13.2118482 C1.07996549,13.2118482 0.0198427914,12.1517255 0.0198427914,10.8265721 L0.0198427914,8.17626534 C0.0198427914,7.09884202 0.7206468,6.19661971 1.69491037,5.89694285 C1.69519877,5.89246024 1.69673137,5.88588893 1.6983704,5.87933282 C2.58180598,2.43393405 5.7180023,0.00448619632 9.29591641,0.00448619632 Z M10.0026649,15.7296396 L8.54499617,15.7296396 C8.32413727,15.7296396 8.14745015,15.9063267 8.14745015,16.1271856 L8.14745015,16.2155291 C8.14745015,16.436388 8.32413727,16.6130752 8.54499617,16.6130752 L10.0026649,16.6130752 C10.2235238,16.6130752 10.4002109,16.436388 10.4002109,16.2155291 L10.4002109,16.1271856 C10.4002109,15.9063267 10.2235238,15.7296396 10.0026649,15.7296396 Z M10.6652416,10.7382285 C11.0627876,10.7382285 11.37199,11.047431 11.37199,11.444977 C11.37199,11.842523 11.0627876,12.1517255 10.6652416,12.1517255 L7.57321702,12.1517255 C7.17567101,12.1517255 6.86646856,11.842523 6.86646856,11.444977 C6.86646856,11.047431 7.17567101,10.7382285 7.57321702,10.7382285 L10.6652416,10.7382285 Z M2.5376342,7.11614264 L2.40511887,7.11614264 C1.83088574,7.11614264 1.38916794,7.55786043 1.38916794,8.13209356 L1.38916794,10.7824003 C1.38916794,11.3566334 1.83088574,11.7983512 2.40511887,11.7983512 L2.5376342,11.7983512 C3.11186733,11.7983512 3.55358512,11.3566334 3.55358512,10.7824003 L3.55358512,8.13209356 C3.55358512,7.55786043 3.11186733,7.11614264 2.5376342,7.11614264 Z M16.1425422,7.11614264 L16.0100268,7.11614264 C15.4357937,7.11614264 14.9940759,7.55786043 14.9940759,8.13209356 L14.9940759,10.7824003 C14.9940759,11.3566334 15.4357937,11.7983512 16.0100268,11.7983512 L16.1425422,11.7983512 C16.7167753,11.7983512 17.1584931,11.3566334 17.1584931,10.7824003 L17.1584931,8.13209356 C17.1584931,7.55786043 16.7167753,7.11614264 16.1425422,7.11614264 Z" id="形状结合"></path>
            </g>
        </g>
    </g>
</svg>